<svg width="245" height="175" viewBox="0 0 245 175" fill="none" xmlns="http://www.w3.org/2000/svg">
<path d="M82.8328 168.757C127.508 168.757 163.725 132.356 163.725 87.4546C163.725 42.5528 127.508 6.15268 82.8328 6.15268C38.1574 6.15268 1.94092 42.5528 1.94092 87.4546C1.94092 132.356 38.1574 168.757 82.8328 168.757Z" stroke="#060606" stroke-width="1.96" stroke-miterlimit="10"/>
<path d="M92.7473 168.757C137.423 168.757 173.639 132.356 173.639 87.4546C173.639 42.5528 137.423 6.15268 92.7473 6.15268C48.072 6.15268 11.8555 42.5528 11.8555 87.4546C11.8555 132.356 48.072 168.757 92.7473 168.757Z" fill="white" stroke="#060606" stroke-width="1.96" stroke-miterlimit="10"/>
<path d="M92.7471 153.754C129.179 153.754 158.712 124.071 158.712 87.4546C158.712 50.8385 129.179 21.1553 92.7471 21.1553C56.3157 21.1553 26.7822 50.8385 26.7822 87.4546C26.7822 124.071 56.3157 153.754 92.7471 153.754Z" fill="white" stroke="#060606" stroke-width="1.6" stroke-miterlimit="10"/>
<path d="M1.64355 96.3344L12.0428 95.7476" stroke="#060606" stroke-width="1.96" stroke-miterlimit="10"/>
<path d="M2.0293 85.0844L11.2609 84.8969" stroke="#060606" stroke-width="1.96" stroke-miterlimit="10"/>
<path d="M3.80273 70.8798L12.4394 72.0645" stroke="#060606" stroke-width="1.96" stroke-miterlimit="10"/>
<path d="M10.082 52.5334L17.7383 54.5042" stroke="#060606" stroke-width="1.96" stroke-miterlimit="10"/>
<path d="M6.94238 60.8153L14.7969 62.5979" stroke="#060606" stroke-width="1.96" stroke-miterlimit="10"/>
<path d="M17.54 39.9002L23.8303 43.2551" stroke="#060606" stroke-width="1.96" stroke-miterlimit="10"/>
<path d="M25.9893 30.0351L31.4863 33.7885" stroke="#060606" stroke-width="1.96" stroke-miterlimit="10"/>
<path d="M36.1904 21.7532L41.6875 23.1261" stroke="#060606" stroke-width="1.96" stroke-miterlimit="10"/>
<path d="M6.16016 111.724L14.202 109.754" stroke="#060606" stroke-width="1.96" stroke-miterlimit="10"/>
<path d="M11.0625 125.742L18.917 122.387" stroke="#060606" stroke-width="1.96" stroke-miterlimit="10"/>
<path d="M17.9365 135.994L24.6123 132.64" stroke="#060606" stroke-width="1.96" stroke-miterlimit="10"/>
<path d="M24.998 143.689L30.3078 140.534" stroke="#060606" stroke-width="1.96" stroke-miterlimit="10"/>
<path d="M34.0312 152.769L38.7462 149.026" stroke="#060606" stroke-width="1.96" stroke-miterlimit="10"/>
<path d="M147.553 173.374C194.765 173.374 233.039 134.906 233.039 87.4546C233.039 40.0029 194.765 1.53564 147.553 1.53564C100.341 1.53564 62.0674 40.0029 62.0674 87.4546C62.0674 134.906 100.341 173.374 147.553 173.374Z" stroke="#060606" stroke-width="2.07" stroke-miterlimit="10"/>
<path d="M158.03 173.374C205.242 173.374 243.515 134.906 243.515 87.4546C243.515 40.0029 205.242 1.53564 158.03 1.53564C110.817 1.53564 72.5439 40.0029 72.5439 87.4546C72.5439 134.906 110.817 173.374 158.03 173.374Z" fill="white" stroke="#060606" stroke-width="2.07" stroke-miterlimit="10"/>
<path d="M158.029 157.518C196.529 157.518 227.74 126.15 227.74 87.4546C227.74 48.7594 196.529 17.3908 158.029 17.3908C119.529 17.3908 88.3188 48.7594 88.3188 87.4546C88.3188 126.15 119.529 157.518 158.029 157.518Z" fill="white" stroke="#060606" stroke-width="1.69" stroke-miterlimit="10"/>
<path d="M61.748 96.8436L72.7422 96.2125" stroke="#060606" stroke-width="2.07" stroke-miterlimit="10"/>
<path d="M62.1665 84.9514L71.9158 84.7419" stroke="#060606" stroke-width="2.07" stroke-miterlimit="10"/>
<path d="M64.0283 69.9386L73.1607 71.1898" stroke="#060606" stroke-width="2.07" stroke-miterlimit="10"/>
<path d="M70.6709 50.5515L78.7678 52.6331" stroke="#060606" stroke-width="2.07" stroke-miterlimit="10"/>
<path d="M67.355 59.3095L75.6502 61.1807" stroke="#060606" stroke-width="2.07" stroke-miterlimit="10"/>
<path d="M78.5586 37.1987L85.1903 40.7417" stroke="#060606" stroke-width="2.07" stroke-miterlimit="10"/>
<path d="M87.4814 26.7688L93.287 30.7326" stroke="#060606" stroke-width="2.07" stroke-miterlimit="10"/>
<path d="M98.2666 18.0108L104.072 19.4723" stroke="#060606" stroke-width="2.07" stroke-miterlimit="10"/>
<path d="M66.5181 113.108L75.0336 111.016" stroke="#060606" stroke-width="2.07" stroke-miterlimit="10"/>
<path d="M71.7065 127.912L80.0128 124.369" stroke="#060606" stroke-width="2.07" stroke-miterlimit="10"/>
<path d="M78.9663 138.751L86.0277 135.208" stroke="#060606" stroke-width="2.07" stroke-miterlimit="10"/>
<path d="M86.4351 146.889L92.0423 143.557" stroke="#060606" stroke-width="2.07" stroke-miterlimit="10"/>
<path d="M95.9863 156.478L100.966 152.525" stroke="#060606" stroke-width="2.07" stroke-miterlimit="10"/>
</svg>
