<svg width="97" height="32" viewBox="0 0 97 32" fill="none" xmlns="http://www.w3.org/2000/svg">
<mask id="mask0_1_71" style="mask-type:alpha" maskUnits="userSpaceOnUse" x="0" y="7" width="95" height="18">
<path d="M94.8842 7.47736H0V24.6556H94.8842V7.47736Z" fill="white"/>
</mask>
<g mask="url(#mask0_1_71)">
<path fill-rule="evenodd" clip-rule="evenodd" d="M48.005 22.2538C47.3794 22.2538 46.8059 22.1225 46.2845 21.8599C45.9903 21.7084 45.7347 21.5283 45.5177 21.3197C45.3806 21.1879 45.1027 21.2773 45.1027 21.4661V21.7479C45.1027 21.8759 44.9974 21.9797 44.8675 21.9797H43.7391C43.6092 21.9797 43.5039 21.8759 43.5039 21.7479V9.94791C43.5039 9.81986 43.6092 9.71608 43.7391 9.71608H44.8622C44.9921 9.71608 45.0974 9.81986 45.0974 9.94791V14.1011C45.0974 14.2899 45.376 14.3798 45.5135 14.2484C45.7323 14.0394 45.9899 13.8591 46.2845 13.7073C46.8059 13.4447 47.3794 13.3134 48.005 13.3134C49.1289 13.3134 50.0789 13.7473 50.8552 14.6151C51.6546 15.4942 52.0543 16.5505 52.0543 17.7836C52.0543 19.0281 51.6546 20.0843 50.8552 20.9521C50.0789 21.8199 49.1289 22.2538 48.005 22.2538ZM47.7443 20.8151C48.509 20.8151 49.152 20.5297 49.6734 19.9588C50.1948 19.3993 50.4555 18.6742 50.4555 17.7836C50.4555 16.9044 50.1948 16.1794 49.6734 15.6084C49.152 15.0375 48.509 14.7521 47.7443 14.7521C46.9681 14.7521 46.3193 15.0375 45.7978 15.6084C45.2881 16.1794 45.0333 16.9044 45.0333 17.7836C45.0333 18.6742 45.2881 19.405 45.7978 19.9759C46.3193 20.5353 46.9681 20.8151 47.7443 20.8151ZM38.0098 22.2538C36.7585 22.2538 35.7274 21.8313 34.9164 20.9864C34.1054 20.1415 33.6999 19.0739 33.6999 17.7836C33.6999 16.5048 34.0937 15.4429 34.8816 14.5979C35.6695 13.7416 36.6774 13.3134 37.9056 13.3134C39.1684 13.3134 40.1706 13.7187 40.9121 14.5294C41.7112 15.3775 42.0932 16.6531 42.0432 17.8132C42.0367 17.962 41.9093 18.0748 41.7582 18.0748H35.6207C35.4633 18.0748 35.3358 18.203 35.3522 18.3572C35.4253 19.0499 35.6972 19.618 36.1676 20.0615C36.7006 20.5639 37.3378 20.8151 38.0793 20.8151C39.0254 20.8151 39.7819 20.3826 40.3489 19.5175C40.4246 19.4019 40.5754 19.3549 40.701 19.4153L41.6563 19.8745C41.7909 19.9393 41.845 20.1016 41.7669 20.2277C41.3977 20.8245 40.9099 21.3 40.3038 21.6543C39.6319 22.054 38.8672 22.2538 38.0098 22.2538ZM35.5476 16.4423C35.491 16.6094 35.6246 16.7731 35.8034 16.7731H40.0365C40.1994 16.7731 40.3296 16.6356 40.2965 16.4784C40.2016 16.027 39.9723 15.6456 39.6087 15.3344C39.18 14.9461 38.6007 14.7521 37.8708 14.7521C37.2683 14.7521 36.747 14.9347 36.3067 15.3001C35.9577 15.5976 35.7046 15.9784 35.5476 16.4423ZM33.2097 13.9093C33.2618 13.7503 33.1413 13.5874 32.9718 13.5874H31.8684C31.7575 13.5874 31.6599 13.6594 31.6286 13.7641L30.0011 19.2088C29.9358 19.4271 29.6236 19.4317 29.5518 19.2153L27.7406 13.7572C27.707 13.6559 27.6111 13.5874 27.503 13.5874H26.214C26.1061 13.5874 26.0105 13.6556 25.9766 13.7566L24.1491 19.219C24.0768 19.4349 23.7652 19.43 23.7 19.2119L22.0716 13.7641C22.0402 13.6594 21.9426 13.5874 21.8317 13.5874H20.6935C20.524 13.5874 20.4036 13.7503 20.4557 13.9093L23.0403 21.809C23.0736 21.9108 23.1698 21.9797 23.2782 21.9797H24.5303C24.6388 21.9797 24.735 21.9107 24.7683 21.8089L26.5923 16.2229C26.6622 16.0088 26.9695 16.0084 27.04 16.2223L28.8794 21.8094C28.9128 21.9111 29.0089 21.9797 29.1172 21.9797H30.3871C30.4957 21.9797 30.5917 21.9108 30.625 21.809L33.2097 13.9093ZM82.7472 21.4831C83.2102 21.9056 83.7894 22.1168 84.4844 22.1168C84.9452 22.1168 85.3569 22.066 85.7217 21.9644C85.8463 21.9298 85.9091 21.7971 85.8661 21.677L85.5255 20.7261C85.4792 20.5986 85.3332 20.5371 85.202 20.5779C85.1667 20.5889 85.1303 20.5995 85.0934 20.6096C84.9766 20.6324 84.8553 20.6438 84.7275 20.6438C84.4497 20.6438 84.2006 20.5468 83.9807 20.3527C83.7602 20.1471 83.6505 19.7646 83.6505 19.2052V15.2579C83.6505 15.1299 83.7558 15.0261 83.8859 15.0261H85.5007C85.6308 15.0261 85.736 14.9223 85.736 14.7943V13.8193C85.736 13.6912 85.6308 13.5874 85.5007 13.5874H83.8859C83.7558 13.5874 83.6505 13.4836 83.6505 13.3556V9.94791C83.6505 9.81986 83.5453 9.71608 83.4147 9.71608H82.2865C82.157 9.71608 82.0517 9.81986 82.0517 9.94791V13.3556C82.0517 13.4836 81.9464 13.5874 81.8158 13.5874H80.7924C80.6623 13.5874 80.557 13.6912 80.557 13.8193V14.7943C80.557 14.9223 80.6623 15.0261 80.7924 15.0261H81.8158C81.9464 15.0261 82.0517 15.1299 82.0517 15.2579V19.7189C82.0627 20.4725 82.2948 21.0606 82.7472 21.4831ZM59.9126 21.2261C60.6891 20.5411 61.0771 19.6847 61.0771 18.6571C61.0771 18.0291 60.8974 17.4639 60.5381 16.9615C60.3728 16.7226 60.1358 16.4189 59.4391 16.0341C59.292 15.9529 59.2881 15.7363 59.4276 15.6423C60.2609 15.0794 60.6775 14.2273 60.6775 13.2277C60.6775 12.2801 60.3237 11.5093 59.6171 10.9156C58.899 10.299 58.0128 9.99067 56.9585 9.99067C56.1125 9.99067 55.3767 10.2133 54.7512 10.6586C54.1934 11.0554 53.779 11.561 53.5061 12.1754C53.4499 12.3027 53.515 12.4482 53.6445 12.5023L54.6327 12.9147C54.7727 12.9731 54.9325 12.9029 54.9948 12.7666C55.3844 11.9208 56.0386 11.4979 56.9585 11.4979C57.584 11.4979 58.0877 11.6578 58.4702 11.9774C58.8527 12.2972 59.0434 12.7139 59.0434 13.2277C59.0434 13.7873 58.8411 14.244 58.4355 14.5979C58.0299 14.9405 57.5085 15.1118 56.8714 15.1118H56.2321C56.086 15.1118 55.9675 15.2285 55.9675 15.3726V16.3239C55.9675 16.4679 56.086 16.5847 56.2321 16.5847H56.9932C57.665 16.5847 58.2382 16.7845 58.7133 17.1841C59.1999 17.5838 59.4435 18.0748 59.4435 18.6571C59.4435 19.2394 59.2115 19.7361 58.748 20.1471C58.2729 20.5468 57.7113 20.7466 57.0626 20.7466C56.4718 20.7466 55.962 20.5753 55.5332 20.2328C55.1783 19.9315 54.9071 19.5226 54.7197 19.0063C54.6663 18.8589 54.5004 18.7786 54.3538 18.8388L53.3871 19.2358C53.2631 19.2867 53.1964 19.4213 53.2399 19.5465C53.51 20.3248 53.979 20.9647 54.647 21.466C55.3651 21.9912 56.1703 22.2538 57.0626 22.2538C58.198 22.2538 59.1481 21.9113 59.9126 21.2261ZM63.9144 19.4107C63.9144 18.9539 64.1287 18.5714 64.557 18.2631C64.9973 17.9549 65.5419 17.8007 66.1905 17.8007C67.0233 17.8007 67.6841 17.9697 68.1735 18.3076C68.2397 18.3534 68.2771 18.4296 68.2727 18.5093C68.2408 19.1188 67.9757 19.6533 67.4769 20.1129C66.9555 20.6039 66.3586 20.8493 65.6868 20.8493C65.2117 20.8493 64.7945 20.7124 64.4357 20.4383C64.088 20.1643 63.9144 19.8217 63.9144 19.4107ZM68.7803 14.2554C68.0969 13.6274 67.1639 13.3134 65.9822 13.3134C64.5575 13.3134 63.4597 13.7964 62.6881 14.7623C62.6049 14.8663 62.6363 15.0166 62.7498 15.0871L63.7584 15.7128C63.8648 15.7789 64.0047 15.7499 64.0836 15.653C64.5895 15.0295 65.2514 14.7178 66.0693 14.7178C66.6601 14.7178 67.1754 14.9119 67.6158 15.3001C68.0589 15.6793 68.216 16.1351 68.2606 16.6499C68.276 16.8268 68.0804 16.9412 67.914 16.8728C67.3634 16.6465 66.7026 16.5333 65.9299 16.5333C64.8177 16.5333 63.9259 16.7902 63.2535 17.3041C62.5933 17.8178 62.2632 18.5086 62.2632 19.3764C62.2632 20.1985 62.5762 20.8836 63.2017 21.4317C63.8388 21.9797 64.6264 22.2538 65.565 22.2538C66.6656 22.2538 67.5463 21.7742 68.2066 20.8151V21.7479C68.2066 21.8759 68.3119 21.9797 68.4419 21.9797H69.5701C69.7002 21.9797 69.8055 21.8759 69.8055 21.7479V16.8073C69.8055 15.7226 69.4637 14.8719 68.7803 14.2554ZM79.0822 21.7334C79.0822 21.8695 78.9703 21.9797 78.8325 21.9797H77.733C77.5952 21.9797 77.4833 21.8695 77.4833 21.7334V21.4583C77.4833 21.2808 77.2105 21.1957 77.0821 21.3202C76.8804 21.5157 76.6379 21.6899 76.3535 21.8428C75.8553 22.1168 75.3339 22.2538 74.7894 22.2538C73.7466 22.2538 72.9414 21.9626 72.3737 21.3803C71.8176 20.7865 71.5393 19.9474 71.5393 18.8626V13.8338C71.5393 13.6977 71.6512 13.5874 71.7895 13.5874H72.8885C73.0263 13.5874 73.1382 13.6977 73.1382 13.8338V18.7599C73.1729 20.13 73.8739 20.8151 75.2408 20.8151C75.8784 20.8151 76.4114 20.5639 76.8396 20.0615C77.2689 19.5477 77.4833 18.9368 77.4833 18.2289V13.8338C77.4833 13.6977 77.5952 13.5874 77.733 13.5874H78.8325C78.9703 13.5874 79.0822 13.6977 79.0822 13.8338V21.7334ZM87.3415 9.94791C87.3415 9.81986 87.4468 9.71608 87.5774 9.71608H88.7056C88.8351 9.71608 88.9404 9.81986 88.9404 9.94791V14.1089C88.9404 14.2864 89.2115 14.3708 89.3394 14.2455C89.5378 14.0506 89.7759 13.8769 90.0531 13.7244C90.5623 13.4504 91.0892 13.3134 91.6343 13.3134C92.6771 13.3134 93.4762 13.6103 94.0323 14.204C94.6 14.7863 94.8838 15.6199 94.8838 16.7045V21.7479C94.8838 21.8759 94.7785 21.9797 94.649 21.9797H93.5209C93.3902 21.9797 93.285 21.8759 93.285 21.7479V17.0129C93.285 15.5057 92.6076 14.7521 91.2518 14.7521C90.6031 14.7521 90.0531 15.0204 89.6012 15.557C89.1608 16.0823 88.9404 16.6989 88.9404 17.4068V21.7479C88.9404 21.8759 88.8351 21.9797 88.7056 21.9797H87.5774C87.4468 21.9797 87.3415 21.8759 87.3415 21.7479V9.94791Z" fill="white"/>
<path d="M14.1708 20.6495C14.2639 20.9975 14.7567 20.9975 14.8498 20.6495L17.5289 10.6304C17.6523 10.169 17.3054 9.71608 16.8287 9.71608H15.177C14.8489 9.71608 14.5617 9.93688 14.4768 10.2544L12.9659 15.9043C12.945 15.9827 12.945 16.0652 12.9659 16.1436L14.1708 20.6495Z" fill="#0364FF"/>
<path d="M4.80788 15.897C4.82883 15.9754 4.82883 16.0579 4.80788 16.1363L3.60299 20.6421C3.5099 20.9901 3.01709 20.9901 2.92403 20.6421L0.246838 10.6304C0.123483 10.169 0.470385 9.71608 0.947007 9.71608H2.59885C2.92693 9.71608 3.2141 9.93688 3.29901 10.2544L4.80788 15.897Z" fill="#0364FF"/>
<path d="M7.06708 22.8518C6.98507 23.1594 6.70774 23.3733 6.39089 23.3733H4.7005C4.24019 23.3733 3.90515 22.9344 4.02431 22.4876L7.27722 10.2864C7.36689 9.94996 7.67024 9.71608 8.01679 9.71608H9.98286C10.3294 9.71608 10.6328 9.94996 10.7225 10.2864L13.9754 22.4876C14.0945 22.9344 13.7594 23.3733 13.2992 23.3733H11.6087C11.2919 23.3733 11.0145 23.1594 10.9325 22.8518L9.32734 16.8308C9.23751 16.4941 8.76204 16.4941 8.67232 16.8308L7.06708 22.8518Z" fill="#0364FF"/>
<path d="M8.40594 21.5824C8.28496 21.5824 8.19689 21.473 8.22825 21.3617L8.82182 19.2496C8.87054 19.0762 9.12853 19.0762 9.17731 19.2496L9.77094 21.3617C9.8023 21.473 9.71422 21.5824 9.59325 21.5824H8.40594Z" fill="#0364FF"/>
</g>
</svg>
