<svg width="285" height="42" viewBox="0 0 285 42" fill="none" xmlns="http://www.w3.org/2000/svg">
<rect x="242.667" width="42" height="42" rx="21" fill="white"/>
<g clip-path="url(#clip0_1_81)">
<path d="M251.417 12.0184C251.417 11.2301 251.693 10.5798 252.245 10.0674C252.796 9.55498 253.514 9.2988 254.397 9.2988C255.264 9.2988 255.965 9.55103 256.501 10.0556C257.053 10.5758 257.329 11.2537 257.329 12.0893C257.329 12.8461 257.061 13.4767 256.525 13.9812C255.973 14.5015 255.248 14.7616 254.349 14.7616H254.326C253.459 14.7616 252.757 14.5015 252.221 13.9812C251.685 13.461 251.417 12.8067 251.417 12.0184ZM251.724 32.711V16.9137H256.974V32.711H251.724ZM259.883 32.711H265.133V23.89C265.133 23.3382 265.196 22.9125 265.322 22.613C265.543 22.0769 265.878 21.6237 266.327 21.2532C266.777 20.8827 267.34 20.6974 268.018 20.6974C269.784 20.6974 270.667 21.8878 270.667 24.2684V32.711H275.917V23.6535C275.917 21.3202 275.365 19.5505 274.262 18.3444C273.158 17.1383 271.7 16.5353 269.887 16.5353C267.853 16.5353 266.268 17.4103 265.133 19.1603V19.2076H265.11L265.133 19.1603V16.9137H259.883C259.915 17.4182 259.931 18.9868 259.931 21.6197C259.931 24.2526 259.915 27.9497 259.883 32.711Z" fill="black"/>
</g>
<rect x="181.404" width="42" height="42" rx="21" fill="white"/>
<g clip-path="url(#clip1_1_81)">
<path d="M208.423 23.4267L209.141 18.6999H204.65V15.6338C204.65 14.3403 205.276 13.0787 207.287 13.0787H209.33V9.05453C209.33 9.05453 207.477 8.73515 205.706 8.73515C202.006 8.73515 199.59 10.9996 199.59 15.0972V18.6999H195.479V23.4267H199.59V34.8542C200.416 34.9851 201.26 35.0522 202.12 35.0522C202.98 35.0522 203.825 34.9851 204.65 34.8542V23.4267H208.423Z" fill="black"/>
</g>
<rect x="121.333" width="42" height="42" rx="21" fill="white"/>
<path d="M151.2 12.1247C149.61 11.3727 147.905 10.8187 146.123 10.5013C146.09 10.4952 146.058 10.5105 146.041 10.5411C145.822 10.9431 145.579 11.4676 145.409 11.8798C143.492 11.5839 141.584 11.5839 139.706 11.8798C139.536 11.4584 139.284 10.9431 139.064 10.5411C139.047 10.5115 139.015 10.4962 138.982 10.5013C137.201 10.8176 135.496 11.3717 133.905 12.1247C133.891 12.1309 133.879 12.1411 133.871 12.1543C130.637 17.1347 129.751 21.9927 130.186 26.7905C130.188 26.8139 130.201 26.8364 130.219 26.8507C132.352 28.4659 134.419 29.4465 136.448 30.0964C136.48 30.1066 136.514 30.0944 136.535 30.0668C137.015 29.3914 137.443 28.6792 137.809 27.9302C137.831 27.8863 137.81 27.8343 137.766 27.8169C137.088 27.5516 136.442 27.2282 135.82 26.8609C135.771 26.8313 135.767 26.7588 135.812 26.7241C135.943 26.6231 136.074 26.518 136.199 26.4119C136.221 26.3925 136.253 26.3884 136.279 26.4007C140.362 28.322 144.782 28.322 148.816 26.4007C148.843 26.3874 148.874 26.3915 148.898 26.4109C149.022 26.517 149.153 26.6231 149.285 26.7241C149.33 26.7588 149.327 26.8313 149.278 26.8609C148.657 27.2353 148.011 27.5516 147.331 27.8159C147.287 27.8333 147.267 27.8863 147.289 27.9302C147.664 28.6781 148.091 29.3903 148.562 30.0658C148.582 30.0944 148.617 30.1066 148.65 30.0964C150.688 29.4465 152.755 28.4659 154.889 26.8507C154.907 26.8364 154.919 26.8149 154.921 26.7915C155.441 21.2447 154.05 16.4266 151.233 12.1553C151.226 12.1411 151.214 12.1309 151.2 12.1247ZM138.419 23.8691C137.19 23.8691 136.177 22.7059 136.177 21.2774C136.177 19.8489 137.17 18.6857 138.419 18.6857C139.678 18.6857 140.68 19.8591 140.661 21.2774C140.661 22.7059 139.668 23.8691 138.419 23.8691ZM146.708 23.8691C145.479 23.8691 144.466 22.7059 144.466 21.2774C144.466 19.8489 145.459 18.6857 146.708 18.6857C147.966 18.6857 148.969 19.8591 148.95 21.2774C148.95 22.7059 147.966 23.8691 146.708 23.8691Z" fill="black"/>
<rect x="60.6663" width="42" height="42" rx="21" fill="white"/>
<path d="M77.8233 32.0775C87.1368 32.0775 92.2293 24.36 92.2293 17.6715C92.2293 17.451 92.2293 17.2305 92.2188 17.0205C93.2058 16.3065 94.0668 15.414 94.7493 14.3955C93.8463 14.7945 92.8698 15.0675 91.8408 15.1935C92.8908 14.5635 93.6888 13.5765 94.0668 12.39C93.0903 12.9675 92.0088 13.3875 90.8538 13.6185C89.9298 12.6315 88.6173 12.0225 87.1578 12.0225C84.3648 12.0225 82.0968 14.2905 82.0968 17.0835C82.0968 17.4825 82.1388 17.871 82.2333 18.2385C78.0228 18.0285 74.2953 16.0125 71.7963 12.9465C71.3658 13.692 71.1138 14.5635 71.1138 15.4875C71.1138 17.241 72.0063 18.795 73.3713 19.698C72.5418 19.677 71.7648 19.446 71.0823 19.068C71.0823 19.089 71.0823 19.11 71.0823 19.131C71.0823 21.588 72.8253 23.625 75.1458 24.0975C74.7258 24.213 74.2743 24.276 73.8123 24.276C73.4868 24.276 73.1718 24.2445 72.8568 24.1815C73.4973 26.1975 75.3663 27.657 77.5818 27.699C75.8493 29.0535 73.6653 29.862 71.2923 29.862C70.8828 29.862 70.4838 29.841 70.0848 29.7885C72.3003 31.2375 74.9673 32.0775 77.8233 32.0775Z" fill="black"/>
<rect width="42" height="42" rx="21" fill="white"/>
<path fill-rule="evenodd" clip-rule="evenodd" d="M33.7891 21.8154C33.7891 20.9095 33.7078 20.0385 33.5568 19.2023H21.5251V24.1439H28.4004C28.1042 25.7408 27.2042 27.0938 25.8512 27.9996V31.205H29.9798C32.3955 28.981 33.7891 25.7059 33.7891 21.8154Z" fill="black"/>
<path fill-rule="evenodd" clip-rule="evenodd" d="M21.5251 34.3C24.9744 34.3 27.8662 33.1561 29.9799 31.205L25.8512 27.9996C24.7073 28.7661 23.2439 29.219 21.5251 29.219C18.1978 29.219 15.3815 26.9718 14.3769 23.9523H10.1089V27.2621C12.211 31.4372 16.5313 34.3 21.5251 34.3Z" fill="black"/>
<path fill-rule="evenodd" clip-rule="evenodd" d="M14.3768 23.9523C14.1213 23.1858 13.9761 22.367 13.9761 21.525C13.9761 20.683 14.1213 19.8643 14.3768 19.0978V15.7879H10.1088C9.24358 17.5125 8.75 19.4636 8.75 21.525C8.75 23.5864 9.24358 25.5375 10.1088 27.2622L14.3768 23.9523Z" fill="black"/>
<path fill-rule="evenodd" clip-rule="evenodd" d="M21.5251 13.831C23.4007 13.831 25.0847 14.4755 26.4087 15.7414L30.0728 12.0773C27.8604 10.0159 24.9686 8.75 21.5251 8.75C16.5313 8.75 12.211 11.6128 10.1089 15.7879L14.3769 19.0978C15.3815 16.0782 18.1978 13.831 21.5251 13.831Z" fill="black"/>
<defs>
<clipPath id="clip0_1_81">
<rect x="251.417" y="8.75" width="24.5" height="24.5" fill="white"/>
</clipPath>
<clipPath id="clip1_1_81">
<rect x="188.554" y="8.0426" width="27.7021" height="27.7021" rx="6" fill="white"/>
</clipPath>
</defs>
</svg>
