<svg width="83" height="25" viewBox="0 0 83 25" fill="none" xmlns="http://www.w3.org/2000/svg">
<path d="M0 24.3938H5.64874L10.2801 16.3956L14.9266 24.3938H20.5754L13.1196 12.0047L20.1198 0.561798H14.4711L10.2953 7.77646L6.10428 0.561798H0.455543L7.44054 12.0195L0 24.3938Z" fill="white"/>
<path d="M35.5628 6.65287L35.3654 8.57481C33.9532 6.91898 31.9336 6.0615 29.5951 6.0615C24.4475 6.0615 20.6817 10.3341 20.6817 15.5381C20.6817 20.1804 23.9312 24.9852 29.5496 24.9852C31.964 24.9852 33.9684 24.0834 35.3654 22.4423L35.5628 24.3938H39.936V6.65287H35.5628ZM30.3544 20.4317C27.3022 20.4317 25.3586 17.9627 25.3586 15.479C25.3586 12.8622 27.53 10.615 30.3544 10.615C32.9206 10.615 35.2591 12.463 35.2591 15.4938C35.2591 18.3915 33.1332 20.4317 30.3544 20.4317Z" fill="white"/>
<path d="M57.4896 0V8.47132C56.0774 6.88941 54.1034 6.07629 51.8257 6.07629C46.678 6.07629 42.9122 10.3489 42.9122 15.5529C42.9122 20.1952 46.1617 25 51.7801 25C54.1945 25 56.1989 24.0982 57.5959 22.4571L57.7933 24.3938H62.045V0H57.4896ZM52.5849 20.4465C49.5327 20.4465 47.5891 17.9775 47.5891 15.4938C47.5891 12.877 49.7605 10.6298 52.5849 10.6298C55.1511 10.6298 57.4896 12.4778 57.4896 15.5086C57.4896 18.4063 55.3637 20.4465 52.5849 20.4465Z" fill="white"/>
<path d="M83 14.8137C83 10.4967 79.8264 6.0615 74.3599 6.0615C69.1819 6.0615 65.0212 10.0384 65.0212 15.5234C65.0212 20.9639 69.1211 24.9852 74.375 24.9852C76.5313 24.9852 79.4316 24.3051 81.7093 21.9249L78.566 18.8794C76.9716 20.2691 75.4835 20.55 74.4813 20.55C72.3099 20.55 70.5637 19.249 69.8652 17.327H82.5596C82.833 16.6322 83 15.7895 83 14.8137ZM74.3447 10.4967C76.5161 10.4967 77.8827 11.8421 78.3686 13.7788H69.7892C70.427 11.783 72.2036 10.4967 74.3447 10.4967Z" fill="white"/>
</svg>
