<svg width="315" height="214" viewBox="0 0 315 214" fill="none" xmlns="http://www.w3.org/2000/svg">
<path fill-rule="evenodd" clip-rule="evenodd" d="M186.938 117.384L178.789 118.19C165.703 119.186 152.627 121.278 139.642 122.528C139.571 122.408 139.472 122.307 139.353 122.235C139.234 122.163 139.099 122.121 138.96 122.114C138.821 122.107 138.682 122.134 138.556 122.194C138.43 122.254 138.321 122.343 138.238 122.455C136.943 122.347 135.522 121.351 134.317 122.383H134.209C132.226 118.323 130.582 114.107 129.292 109.778C128.386 107.143 127.191 104.589 124.963 102.823C121.169 100.179 112.476 94.8364 108.011 95.0628C107.941 94.239 107.566 93.4708 106.961 92.9076C108.301 90.6166 102.922 89.1134 102.542 89.3851C102.786 81.7061 99.1733 75.0413 91.2226 73.52C84.096 72.0349 73.9539 71.7814 70.1235 79.234C69.707 79.234 65.3966 79.1615 64.98 79.234C64.3371 78.419 57.2195 86.1976 60.1354 88.9051C34.0648 100.442 19.2411 99.0653 12.0239 131.466C11.046 134.517 10.9735 137.804 9.95026 140.829C6.28281 149.386 3.31263 158.505 2.57009 167.823C0.759007 168.276 0.577895 171.445 2.65159 171.889C3.38501 172.016 4.07924 172.31 4.68 172.749C4.22723 180.383 6.07454 197.824 7.23363 197.769C9.60615 205.322 20.1829 207.45 27.6717 204.796C26.3768 207.223 27.6717 208.754 27.6717 210.049C54.6116 211.072 84.0688 210.483 110.982 211.86C114.432 211.86 118.054 212.711 121.45 212.195C123.523 211.697 123.523 208.437 121.45 208.038L130.641 206.037C130.433 205.965 134.426 203.32 137.441 198.34C140.249 192.789 138.347 186.088 139.606 180.048C149.567 179.233 159.645 178.889 169.489 177.205C170.829 181.216 176.624 176.417 178.472 174.488C178.929 174.36 179.334 174.09 179.628 173.718C179.923 173.345 180.092 172.889 180.111 172.414C180.432 171.983 180.618 171.467 180.645 170.93C180.673 170.393 180.54 169.86 180.265 169.399C182.981 153.516 187.21 137.306 188.722 121.278C189.263 121.164 189.766 120.918 190.189 120.563C190.395 120.369 190.552 120.129 190.648 119.863C190.745 119.597 190.778 119.313 190.744 119.032C190.711 118.751 190.612 118.482 190.456 118.246C190.3 118.011 190.091 117.815 189.845 117.674C188.943 117.231 187.911 117.129 186.938 117.384Z" fill="white"/>
<path fill-rule="evenodd" clip-rule="evenodd" d="M70.6214 77.5225C70.7415 77.0914 71.0279 76.7256 71.4177 76.5057C71.8074 76.2858 72.2685 76.2297 72.6996 76.3498C73.1307 76.4699 73.4965 76.7563 73.7164 77.146C73.9363 77.5358 73.9924 77.9969 73.8723 78.428C73.5906 79.7634 73.0756 81.0385 72.351 82.1951C71.8737 83.1314 71.2327 83.9747 70.4584 84.6853C71.8711 86.0074 73.3471 87.2842 74.8503 88.4886C76.4991 89.7951 78.2225 91.0045 80.0119 92.1107C81.5785 93.0887 83.2175 93.9218 84.6935 95.0719C86.121 96.0532 87.2493 97.4102 87.9535 98.9929C88.5033 100.714 88.4619 102.569 87.8358 104.263L87.7814 104.462C87.2653 106.183 86.3869 108.257 87.6094 109.896C88.3007 110.67 89.0785 111.363 89.9276 111.96C90.6184 112.553 91.2689 113.191 91.8745 113.871C93.1916 115.348 94.2205 117.059 94.9081 118.915L94.9714 119.087C95.5419 120.744 95.9675 122.772 95.1888 124.402C95.1299 124.5 95.0439 124.579 94.9412 124.629C94.8384 124.678 94.7235 124.697 94.6102 124.683C94.497 124.668 94.3904 124.621 94.3034 124.547C94.2164 124.474 94.1527 124.376 94.1202 124.267C93.8395 123.234 93.8576 122.157 93.6131 121.115C93.365 120.035 92.9657 118.996 92.4269 118.027C91.385 116.16 89.9957 114.51 88.3338 113.165L87.8448 112.766C86.5499 111.707 85.3636 110.584 85.1282 108.827C84.8928 107.07 85.5991 105.16 86.079 103.394C86.4603 102.246 86.4919 101.01 86.1696 99.8441C85.6938 100.551 85.1799 101.231 84.6302 101.882C83.6793 103.104 82.7104 104.317 81.7505 105.504C80.7907 106.69 79.8036 108.03 78.889 109.325C78.4725 109.929 78.065 110.517 77.6665 111.091C77.3587 111.526 76.9331 111.996 76.6071 112.422C76.6519 112.539 76.6687 112.664 76.6561 112.788C76.6435 112.913 76.6019 113.032 76.5346 113.137C74.7779 115.51 72.2786 110.557 71.6266 109.298C70.2954 106.753 69.3084 104.046 68.0044 101.492C66.6271 98.8387 65.0562 96.2903 63.3046 93.8675C62.2361 92.4096 61.0499 91.0331 60.0809 89.5299C57.799 91.6036 54.7926 92.9891 52.0307 94.2478C49.0061 95.6333 45.8549 96.7652 42.7398 97.9605L41.8342 98.3228C36.4734 100.415 30.9678 102.715 26.5306 106.473C21.2966 110.837 18.1996 116.923 15.8995 123.225C13.2463 130.469 11.0549 137.931 9.00836 145.375C7.95793 149.184 6.96486 153.008 6.02914 156.848C5.20509 160.235 4.52594 163.649 3.57512 166.999C5.50392 166.927 7.70438 167.678 9.36152 167.905C16.8659 168.788 24.2398 170.553 31.33 173.166C31.6957 173.312 31.9924 173.591 32.1604 173.948C32.3284 174.304 32.3553 174.71 32.2355 175.086L33.7478 174.651C33.1954 173.809 33.458 172.287 33.5033 171.346V171.282C33.5485 170.024 33.6844 168.774 33.7749 167.515C33.9379 165.137 34.1643 162.761 34.4541 160.389L34.5265 159.8C34.8525 157.219 35.097 154.62 35.4321 152.04L35.4774 151.75C35.3053 151.089 35.097 150.437 34.8887 149.794C34.3273 148.064 33.5395 146.434 32.8422 144.759C32.7607 144.569 33.0414 144.451 33.1682 144.569C34.3335 145.663 35.3015 146.949 36.0297 148.372C36.0349 148.306 36.0349 148.239 36.0297 148.173L36.1203 147.756C36.2659 146.707 36.64 145.702 37.216 144.813C37.2298 144.791 37.249 144.772 37.272 144.759C37.295 144.746 37.3209 144.74 37.3473 144.74C37.3737 144.74 37.3996 144.746 37.4226 144.759C37.4455 144.772 37.4648 144.791 37.4786 144.813C37.9884 145.901 38.2512 147.089 38.2483 148.291C38.3479 149.604 38.366 150.935 38.3479 152.257C38.3479 154.829 38.1306 157.418 37.9857 159.99C37.8408 162.562 37.5601 165.007 37.1979 167.515L37.1345 167.986C36.9624 169.172 36.8176 170.377 36.5821 171.608L36.5187 171.934C36.4164 172.643 36.2682 173.345 36.075 174.035C42.4138 172.26 48.7526 170.528 55.0914 168.837C59.6915 167.606 64.2917 166.401 68.8918 165.215C69.1352 164.773 69.4401 164.367 69.7974 164.011C71.047 162.806 72.6861 162.263 74.1983 163.196C74.2286 163.212 74.2539 163.236 74.2715 163.266C74.2892 163.295 74.2985 163.329 74.2985 163.363C74.2985 163.398 74.2892 163.431 74.2715 163.461C74.2539 163.49 74.2286 163.515 74.1983 163.531L73.3381 164.02L76.0547 163.277C78.1193 162.716 80.2111 162.019 82.321 161.629C86.33 159.759 90.463 158.168 94.6907 156.866L95.1707 156.703C97.2707 155.908 99.4255 155.267 101.618 154.783C103.203 154.494 105.068 154.847 105.702 156.477C106.507 157.034 107.278 157.639 108.011 158.288C108.536 158.731 109.053 159.193 109.569 159.664L109.659 159.746C110.094 160.017 110.403 160.451 110.52 160.95C110.574 161.249 110.384 161.656 110.012 161.62C108.872 161.493 107.948 160.171 107.178 159.383C106.58 158.777 105.983 158.152 105.43 157.482C105.353 157.53 105.266 157.562 105.175 157.576C105.084 157.59 104.992 157.586 104.903 157.563C104.814 157.54 104.731 157.499 104.658 157.443C104.585 157.387 104.525 157.317 104.48 157.237C103.429 155.254 100.559 156.631 98.9739 157.101L96.701 157.772L93.2871 158.795C90.1721 159.7 87.0661 160.796 83.9238 161.674C83.9992 161.756 84.0524 161.856 84.0785 161.964C84.1045 162.072 84.1024 162.185 84.0724 162.292C84.0425 162.399 83.9857 162.497 83.9074 162.576C83.829 162.655 83.7318 162.712 83.625 162.743C81.0955 163.608 78.5161 164.318 75.9007 164.871L71.0561 166.139C70.7659 166.612 70.5749 167.138 70.4947 167.687C70.3521 169.983 70.6597 172.283 71.4002 174.461L71.4817 174.778C71.9616 176.471 72.6589 178.536 74.1168 179.604C74.4869 179.878 74.9257 180.044 75.3846 180.084L83.9419 175.683C84.0498 175.629 84.1684 175.601 84.2889 175.6C84.4093 175.598 84.5285 175.624 84.6375 175.676C84.7465 175.727 84.8423 175.803 84.9179 175.896C84.9935 175.99 85.0468 176.1 85.0739 176.217C86.067 176.052 87.0452 175.807 87.9988 175.484C89.5382 174.959 90.7154 173.963 92.1733 173.274C94.9624 171.943 97.8058 173.582 100.323 174.823L100.894 175.104C102.017 175.647 104.344 176.688 104.878 175.203C105.412 173.718 103.755 172.233 102.696 171.581C101.395 170.859 99.9895 170.342 98.5302 170.051C97.7152 169.851 96.8912 169.698 96.0581 169.58C95.109 169.523 94.1667 169.384 93.2419 169.163C93.1362 169.131 93.0437 169.066 92.978 168.977C92.9123 168.888 92.8769 168.78 92.8769 168.67C92.8769 168.559 92.9123 168.452 92.978 168.363C93.0437 168.274 93.1362 168.209 93.2419 168.176C94.7607 167.97 96.3064 168.1 97.7696 168.557L98.5302 168.747C100.018 169.069 101.458 169.583 102.813 170.277C103.869 170.824 104.783 171.608 105.485 172.568C105.768 172.334 106.109 172.18 106.473 172.123C106.836 172.066 107.208 172.107 107.549 172.242L107.957 172.36C108.56 172.576 109.207 172.638 109.84 172.541L110.112 171.11C111.018 166.392 112.077 161.702 113.218 157.038C115.174 148.979 117.432 141.013 119.992 133.141L120.245 132.353C120.733 130.478 121.41 128.658 122.264 126.92C122.704 126.18 123.29 125.538 123.986 125.032C124.682 124.526 125.473 124.167 126.312 123.977C128.25 123.433 130.288 123.153 132.271 122.781L133.593 122.546C133.222 121.867 132.941 121.106 132.687 120.518L132.642 120.409C132.108 119.186 131.619 117.928 131.157 116.669L130.804 115.763C130.009 113.473 129.037 111.248 127.897 109.108C126.654 106.867 124.928 104.93 122.844 103.439C118.633 100.342 113.553 98.7665 109.46 95.4522C109.297 95.3163 109.505 95.09 109.677 95.1715C112.439 96.5569 115.419 97.5078 118.289 98.6306L118.86 98.857C121.174 99.6848 123.371 100.808 125.398 102.198C127.564 103.799 129.346 105.862 130.614 108.238C131.8 110.674 132.802 113.196 133.611 115.782L133.846 116.452C134.218 117.466 134.589 118.471 135.024 119.449C135.359 120.237 136.002 121.124 136.291 122.012L138.664 121.604C155.863 118.736 173.239 117.048 190.669 116.551C190.815 116.559 190.958 116.599 191.087 116.668C191.215 116.737 191.327 116.834 191.414 116.952C191.501 117.07 191.56 117.206 191.588 117.349C191.616 117.493 191.611 117.641 191.575 117.783C189.899 127.671 188.414 137.596 186.784 147.494C186.078 151.816 185.354 156.133 184.611 160.443C184.231 162.634 183.796 164.808 183.443 166.999C183.215 168.777 182.882 170.54 182.447 172.278C182.05 173.844 181.283 175.291 180.21 176.498C178.962 177.702 177.358 178.467 175.637 178.681C171.345 179.423 166.935 179.722 162.606 180.211L139.569 182.837C139.883 185.884 139.953 188.952 139.778 192.01L139.687 193.703C139.615 195.062 139.524 196.42 139.334 197.769C139.073 199.414 138.322 200.942 137.179 202.152C136.093 203.288 134.905 204.322 133.629 205.24C132.383 206.274 130.999 207.131 129.518 207.785L129.328 207.857C128.006 208.373 125.524 209.179 123.713 208.88C123.958 210.067 124.411 211.343 124.003 212.503C123.964 212.635 123.891 212.756 123.792 212.852C123.693 212.949 123.571 213.018 123.437 213.053C123.303 213.089 123.162 213.089 123.029 213.055C122.895 213.02 122.772 212.951 122.672 212.856C121.766 211.95 121.766 210.728 121.54 209.532C121.314 208.337 121.142 207.033 120.979 205.783C120.645 203.36 120.433 200.921 120.345 198.476C120.263 195.967 120.299 193.459 120.435 190.951C120.499 189.665 120.589 188.379 120.752 187.102C120.819 186.559 120.891 186.015 120.97 185.472C120.97 185.273 121.033 185.074 121.069 184.874L119.005 185.11C115.835 185.463 112.666 185.789 109.46 185.834C109.295 185.84 109.131 185.805 108.982 185.733C108.834 185.66 108.706 185.552 108.609 185.418C108.495 185.596 108.337 185.742 108.149 185.841C107.962 185.939 107.752 185.987 107.54 185.979C103.085 185.979 98.9287 184.503 94.8628 182.783C92.8163 181.922 90.806 180.972 88.7594 180.12C86.8487 179.323 84.8022 178.744 82.9368 177.847L78.0831 180.41C78.0493 180.528 78.0069 180.643 77.9563 180.754C77.5998 181.359 77.0321 181.811 76.3626 182.022C75.7699 182.267 75.1258 182.36 74.4881 182.294L63.3318 188.134L59.61 190.072C52.1936 193.939 44.8044 197.86 37.3428 201.636L36.7994 201.908C34.1487 203.297 31.4078 204.507 28.5952 205.53C28.5414 206.259 28.5414 206.992 28.5952 207.721V207.884C28.6767 208.79 28.8578 209.931 28.1334 210.601C28.0431 210.69 27.9336 210.757 27.8133 210.798C27.693 210.838 27.5651 210.85 27.4393 210.834C27.3136 210.817 27.1932 210.772 27.0875 210.702C26.9818 210.632 26.8935 210.538 26.8294 210.429C26.3585 209.523 26.7751 208.065 26.929 207.069C26.9766 206.709 27.0462 206.352 27.1373 206.001C23.9279 207.051 20.5225 207.36 17.1764 206.906C13.9345 206.372 11.4171 204.325 9.3887 201.817C7.24438 199.167 5.71359 196.074 4.90627 192.762C4.11315 188.986 3.78772 185.126 3.93734 181.27C3.92806 177.168 4.15482 173.068 4.61649 168.991C4.06221 168.84 3.48832 168.773 2.91407 168.792C2.77327 168.996 2.5783 169.157 2.35111 169.256C2.12393 169.355 1.87355 169.389 1.6282 169.353C0.586829 170.503 3.23101 171.672 4.07316 171.97C4.36294 172.07 4.33577 172.55 4.00072 172.532H3.78339C2.47941 172.459 1.13016 172.242 0.3695 171.029C0.083933 170.58 -0.0419097 170.048 0.0123184 169.519C0.0665465 168.99 0.297676 168.494 0.66833 168.113C1.27516 163.557 2.18269 159.047 3.38496 154.611C4.44444 150.237 5.62164 145.882 6.86223 141.544L7.42366 139.606C9.29373 132.759 11.5491 126.024 14.179 119.431C15.4614 116.139 17.1465 113.018 19.1957 110.14C21.145 107.511 23.4912 105.202 26.1503 103.294C31.1217 99.672 36.9624 97.5078 42.6945 95.425L42.9481 95.3345C45.9183 94.2569 48.8794 93.1702 51.8224 92.0111C54.4213 90.9788 56.9115 89.6748 59.4923 88.6244L59.2478 88.1626H59.2025C59.0689 88.242 58.9125 88.2744 58.7582 88.2547C58.604 88.235 58.4608 88.1643 58.3513 88.0539C57.7446 87.4834 57.9438 86.8495 58.3513 86.2428L58.4057 86.1613C58.8947 85.4731 59.3112 84.7396 59.7911 84.0242L60.0809 83.5715C60.8103 82.3434 61.6794 81.2039 62.6708 80.1757C63.1209 79.7412 63.6414 79.386 64.2102 79.1253C64.1559 79.0257 64.5724 78.8174 64.6901 78.926C66.5176 78.4048 68.4371 78.2904 70.3135 78.591M138.537 182.891L136.128 183.163C133.475 183.471 130.813 183.761 128.16 184.069L122.382 184.693C122.382 185.028 122.328 185.345 122.319 185.599C122.319 186.876 122.255 188.162 122.228 189.438C122.174 192.01 122.228 194.582 122.4 197.145C122.572 199.707 122.781 202.116 123.116 204.588L123.188 205.086V205.34C123.339 205.355 123.484 205.4 123.617 205.473C123.749 205.546 123.865 205.646 123.958 205.765C124.447 206.345 126.213 205.765 126.901 205.539C128.041 205.078 129.116 204.469 130.097 203.728C131.048 203.047 131.939 202.287 132.76 201.455L133.439 200.785C134.162 200.141 134.774 199.382 135.25 198.539C135.722 197.32 135.994 196.033 136.056 194.727C136.255 193.187 136.5 191.639 136.753 190.108M68.4029 166.827L68.1493 166.89C59.0939 169.308 49.966 171.798 40.8472 174.135C36.3195 175.276 31.7918 176.335 27.2641 177.458L26.5306 177.639C22.9628 178.545 19.3497 179.631 16.624 182.221C16.5153 182.312 16.3704 182.167 16.47 182.067C19.413 178.934 23.5966 177.603 27.6172 176.453L29.8449 175.819C24.3916 173.836 18.8135 172.214 13.1467 170.965C11.6797 170.657 10.2037 170.422 8.74576 170.114C7.7225 169.897 6.72641 169.58 5.72125 169.317L4.92437 169.118V171.626C4.92437 175.176 4.92438 178.726 5.09643 182.285V182.937C5.3047 186.894 5.63975 190.933 7.04334 194.654C8.18094 197.703 10.0025 200.451 12.3679 202.686C13.5106 203.817 14.9175 204.645 16.461 205.095C17.9417 205.454 19.4708 205.57 20.9887 205.439C28.3055 204.923 34.8163 200.912 41.1642 197.661C51.5598 192.282 61.9554 186.906 72.351 181.533C72.066 181.341 71.802 181.119 71.5632 180.872C70.2466 179.353 69.3478 177.518 68.9552 175.547C68.4269 173.474 68.1383 171.347 68.095 169.209M81.5604 183.589C81.5811 183.575 81.605 183.568 81.6296 183.568C81.6541 183.567 81.6783 183.573 81.6997 183.585C81.721 183.597 81.7387 183.615 81.7509 183.636C81.763 183.658 81.7692 183.682 81.7686 183.706C81.699 184.517 81.4451 185.3 81.0261 185.997V186.079C80.6277 186.984 80.1839 187.836 79.7402 188.696C78.8347 190.416 77.8929 192.119 76.9149 193.803C74.9855 197.196 72.729 200.393 70.1777 203.347C69.5982 204.009 68.6383 203.157 69.0096 202.442C70.8537 199.014 72.8821 195.689 75.0857 192.481C76.1724 190.869 77.259 189.248 78.3548 187.645C78.8075 186.975 79.2603 186.305 79.7493 185.644L80.0391 185.255M189.483 118.462C180.355 118.74 171.242 119.343 162.145 120.273C153.693 121.136 145.28 122.289 136.907 123.732C135.156 124.034 133.412 124.336 131.673 124.638L130.623 124.837C128.884 125.163 126.747 125.299 125.189 126.232C123.632 127.164 123.107 129.265 122.563 130.968C121.923 132.96 121.299 134.955 120.689 136.953C118.274 144.904 116.08 152.918 114.106 160.995C113.137 165.007 112.294 169.037 111.389 173.057C110.583 176.634 109.687 180.166 108.754 183.697C108.879 183.602 109.025 183.537 109.179 183.507C113.816 182.52 118.552 182.085 123.261 181.542L123.713 181.488C128.585 180.917 133.457 180.347 138.329 179.803L170.602 176.181C172.547 176.077 174.482 175.826 176.389 175.43C179.54 174.524 180.283 171.038 180.808 168.185V168.104C182.402 159.628 183.669 151.08 185.154 142.586M109.487 173.818C108.229 173.727 106.517 172.586 105.566 172.668C105.832 173.079 106.008 173.541 106.082 174.025C106.157 174.509 106.13 175.003 106.001 175.475C105.204 178.318 101.582 176.851 99.8433 175.982C98.4675 175.157 96.9915 174.512 95.4514 174.062C93.6403 173.691 92.445 174.406 90.9237 175.221C89.6759 175.901 88.3279 176.378 86.9302 176.634C86.2218 176.756 85.5008 176.79 84.7841 176.734L84.6392 176.824L84.2679 177.023C85.957 177.172 87.621 177.531 89.2213 178.092C90.8422 178.581 92.4269 179.179 94.0116 179.785L95.5691 180.383C99.4086 181.85 103.384 183.244 107.531 183.235C107.795 183.23 108.055 183.306 108.274 183.453M102.515 165.016C103.103 164.91 103.706 164.928 104.286 165.07C104.867 165.212 105.411 165.474 105.883 165.84C107.079 166.809 107.875 168.421 109.587 168.557C109.646 168.548 109.707 168.552 109.765 168.567C109.823 168.582 109.878 168.608 109.926 168.644C109.974 168.681 110.014 168.726 110.044 168.778C110.075 168.829 110.095 168.886 110.103 168.946C110.111 169.005 110.108 169.066 110.093 169.124C110.078 169.182 110.051 169.237 110.015 169.285C109.979 169.333 109.934 169.373 109.882 169.403C109.83 169.434 109.773 169.454 109.714 169.462C108.437 169.842 107.395 169.145 106.526 168.249L105.947 167.642C105.584 167.161 105.112 166.772 104.571 166.506C104.03 166.24 103.434 166.105 102.832 166.112C101.274 166.175 99.7074 166.537 98.159 166.718C96.4022 166.927 94.6455 167.099 92.8796 167.253C92.7981 167.253 92.7891 167.135 92.8796 167.117L94.8537 166.619M101.337 160.008H101.537C103.262 159.692 105.043 159.969 106.59 160.796L106.897 160.977C108.433 161.791 109.771 162.932 110.818 164.319C110.849 164.371 110.863 164.432 110.86 164.492C110.856 164.553 110.834 164.611 110.797 164.66C110.761 164.708 110.71 164.745 110.653 164.765C110.595 164.784 110.533 164.787 110.474 164.771C108.736 164.355 107.468 163.078 106.001 162.118C104.362 161.05 102.669 161.213 100.794 161.394C98.9196 161.575 97.1719 161.774 95.3608 162.082C93.5497 162.39 91.9831 162.806 90.2807 162.987C90.235 162.985 90.1912 162.968 90.1555 162.94C90.1199 162.911 90.0942 162.872 90.0821 162.828C90.0701 162.783 90.0723 162.737 90.0884 162.694C90.1046 162.651 90.1339 162.614 90.1721 162.589C91.9669 161.802 93.8529 161.242 95.7864 160.923M155.914 142.296C155.872 142.128 155.891 141.95 155.969 141.795C156.047 141.639 156.177 141.517 156.338 141.45C156.498 141.383 156.676 141.376 156.841 141.43C157.006 141.484 157.147 141.595 157.237 141.743L157.336 141.879C158.359 143.283 159.835 145.04 159.763 146.824C160.217 146.833 160.661 146.966 161.045 147.208C161.43 147.451 161.741 147.794 161.945 148.2C162.109 148.608 162.171 149.049 162.126 149.486C162.968 149.602 163.746 149.998 164.336 150.609C164.725 151.019 164.966 151.548 165.02 152.11C165.074 152.673 164.938 153.238 164.635 153.715C163.34 155.924 160.506 156.721 158.115 156.902H158.033C155.561 157.074 152.002 157.029 150.318 154.91C148.634 152.791 150.49 151.206 152.338 150.31C152.088 150.105 151.907 149.829 151.818 149.518C151.729 149.208 151.737 148.877 151.839 148.571C152.256 147.403 153.705 146.95 154.556 146.135C155.08 145.67 155.481 145.083 155.725 144.426C155.968 143.769 156.045 143.062 155.951 142.368M157.3 144.089C157.002 145.295 156.349 146.383 155.425 147.213C155.067 147.549 154.679 147.852 154.266 148.118H154.212C153.85 148.327 152.944 148.707 153.017 149.178C153.089 149.649 154.556 150.391 154.955 150.391C155.045 150.391 155.099 150.536 155.009 150.582C154.696 150.76 154.346 150.863 153.986 150.884C153.626 150.904 153.267 150.841 152.935 150.699C152.455 151.179 152.03 151.686 151.541 152.184C150.735 153.09 151.006 153.995 151.966 154.647C153.497 155.698 155.833 155.671 157.617 155.553C159.466 155.572 161.269 154.983 162.751 153.878L162.815 153.823C163.575 153.144 164.282 152.012 163.104 151.333C162.661 151.149 162.195 151.024 161.719 150.962C161.55 151.351 161.293 151.696 160.968 151.968C160.642 152.24 160.258 152.432 159.844 152.528C159.704 152.56 159.557 152.543 159.429 152.479C159.3 152.415 159.197 152.309 159.137 152.178C159.078 152.047 159.065 151.9 159.102 151.761C159.138 151.622 159.221 151.499 159.337 151.415L159.464 151.333C159.861 151.123 160.195 150.812 160.435 150.433C160.675 150.053 160.812 149.617 160.832 149.169C160.832 148.508 159.926 147.675 159.292 148.263C158.785 148.834 157.898 148.119 158.233 147.485M39.7787 111.109C39.7782 111.077 39.7885 111.045 39.8079 111.019C39.8274 110.994 39.855 110.975 39.8862 110.967C39.9174 110.958 39.9506 110.961 39.9803 110.973C40.01 110.986 40.0347 111.008 40.0503 111.037C41.1218 113.214 41.9274 115.513 42.45 117.882C43.102 120.255 43.6272 122.655 44.1072 125.072C45.0643 129.932 45.5675 134.871 45.6104 139.824C45.6104 140.53 44.4513 140.729 44.3426 139.996C43.5819 135.142 42.8666 130.288 42.1059 125.435C41.7256 122.999 41.2819 120.563 40.8563 118.136M51.3605 114.695C51.27 114.405 51.6865 114.315 51.7862 114.577C54.2424 120.376 54.8157 126.8 53.4252 132.942C53.1897 133.847 51.8314 133.476 52.0035 132.552M81.6238 109.57C81.6238 109.361 81.8864 109.325 81.995 109.47C83.1088 111.037 83.5707 113.092 85.5176 113.952C86.4865 114.351 87.5913 114.278 88.4515 114.967C88.7666 115.146 89.0016 115.439 89.1092 115.785C89.2168 116.131 89.1889 116.506 89.0311 116.832C88.9957 116.892 88.9474 116.943 88.8896 116.981C88.8318 117.02 88.7661 117.045 88.6974 117.054C88.6287 117.064 88.5586 117.058 88.4926 117.036C88.4265 117.015 88.366 116.979 88.3157 116.932C88.102 116.545 87.8336 116.191 87.5188 115.881C86.9482 115.599 86.3372 115.406 85.7078 115.311C84.9296 115.096 84.223 114.677 83.6612 114.097M100.205 83.4357C100.229 83.421 100.256 83.4112 100.283 83.4069C100.311 83.4026 100.339 83.4039 100.366 83.4107C100.393 83.4174 100.418 83.4295 100.44 83.4463C100.463 83.463 100.481 83.484 100.495 83.5081C100.524 83.531 100.546 83.56 100.562 83.5929C100.578 83.6258 100.586 83.6618 100.586 83.6983C100.586 83.7347 100.578 83.7707 100.562 83.8036C100.546 83.8365 100.524 83.8655 100.495 83.8884C100.668 84.3262 100.804 84.7775 100.903 85.2377C101.02 85.7538 101.147 86.27 101.274 86.7862C101.537 87.8185 101.763 88.8689 102.026 89.9012C102.288 90.9335 102.641 92.0926 103.013 93.1612C103.033 93.2349 103.057 93.3075 103.085 93.3785L103.13 93.4872C103.142 93.4583 103.165 93.4355 103.194 93.4236C103.223 93.4117 103.255 93.4118 103.284 93.4238C103.313 93.4358 103.336 93.4587 103.348 93.4876C103.36 93.5165 103.36 93.5489 103.348 93.5777C103.348 93.6864 103.302 93.8041 103.284 93.9218V94.0214C103.454 94.3113 103.543 94.641 103.543 94.9768C103.543 95.3125 103.454 95.6423 103.284 95.9321C103.151 96.1288 102.946 96.2654 102.714 96.3125C102.339 97.509 101.9 98.6848 101.401 99.835L101.256 100.161C100.594 101.842 99.7047 103.423 98.6117 104.861C97.3621 106.4 95.6325 107.451 94.5458 109.135C94.0555 109.915 93.6689 110.755 93.3958 111.634L93.2871 111.969C93.1503 112.609 92.7869 113.179 92.2639 113.572C92.1653 113.629 92.0506 113.652 91.9376 113.638C91.8246 113.623 91.7196 113.571 91.639 113.491C90.4347 112.214 91.7024 109.868 92.4269 108.601C93.5035 107.025 94.8311 105.636 96.3569 104.489C97.8416 103.019 99.0473 101.292 99.9157 99.3913C100.513 98.2594 101.084 97.1093 101.727 95.9774C101.167 95.2691 100.805 94.4257 100.676 93.5324V93.4691C100.319 92.2273 100.047 90.9626 99.8614 89.6839C99.6922 88.4844 99.6285 87.2723 99.6712 86.0617V85.7448M102.623 89.367C102.487 89.1768 102.723 88.9595 102.913 88.9957C104.096 89.3412 105.225 89.8534 106.264 90.517L106.381 90.5804C107.263 90.9697 108.001 91.6252 108.491 92.4548C108.89 93.432 109.019 94.4988 108.862 95.5427V95.6333C108.833 96.8901 108.712 98.143 108.5 99.3822C108.472 99.5059 108.417 99.6221 108.341 99.7234C108.265 99.8247 108.168 99.9088 108.057 99.9702C107.946 100.032 107.823 100.069 107.697 100.08C107.57 100.091 107.443 100.076 107.323 100.034C106.753 101.845 105.132 103.186 103.954 104.616C102.451 106.427 102.741 108.909 102.895 111.109C102.958 112.015 101.854 112.25 101.283 111.779L99.97 110.683L99.309 110.131L98.7566 109.66L98.4849 109.416C98.3582 109.307 97.8239 108.709 97.67 108.682C97.2896 108.628 96.3931 109.588 96.0762 109.941C95.5007 110.504 94.968 111.11 94.4824 111.752C94.4644 111.773 94.4396 111.786 94.4125 111.791C94.3854 111.795 94.3576 111.79 94.334 111.776C94.3104 111.762 94.2924 111.74 94.2831 111.714C94.2738 111.688 94.2739 111.66 94.2832 111.634C94.71 110.681 95.2286 109.771 95.8317 108.918L95.9585 108.755C96.3569 108.211 96.864 107.251 97.6066 107.088C98.5121 106.898 99.3452 107.768 99.97 108.247L100.876 108.936C100.771 107.304 101.126 105.676 101.899 104.236C102.566 103.303 103.321 102.436 104.154 101.646C104.996 100.695 105.44 99.5271 106.209 98.5401C106.256 98.4796 106.315 98.4291 106.382 98.3918C106.449 98.3545 106.522 98.331 106.599 98.3228C106.599 97.5259 106.743 96.72 106.834 95.9321V95.6967C107.054 94.799 107.017 93.8573 106.725 92.9801C106.199 92.2435 105.523 91.6263 104.742 91.169L104.199 90.7343M64.7445 80.1666C64.3814 80.3722 64.0516 80.6317 63.7665 80.9363C62.8762 81.9797 62.1188 83.1294 61.5117 84.3593C61.1585 85.0022 60.8144 85.6542 60.4613 86.2881C60.3073 86.5688 60.1534 86.8495 59.9904 87.1212C59.9179 87.248 59.7006 87.5015 59.5919 87.6555C59.7096 87.8275 59.8364 87.9905 59.9632 88.1535C60.09 88.3165 63.3771 91.8844 64.5452 93.3242C66.3454 95.5076 67.9427 97.8506 69.3174 100.324C70.6667 102.76 71.6809 105.332 72.9396 107.813C73.5429 109.072 74.2807 110.262 75.1401 111.363L75.2487 111.48C75.6763 110.591 76.2248 109.765 76.8787 109.026L76.924 108.972C77.8839 107.668 78.9071 106.409 79.9485 105.169C80.9899 103.928 81.8773 102.923 82.8734 101.827L83.2537 101.42C83.9893 100.484 84.8661 99.668 85.8526 99.0019C85.7385 98.8036 85.6115 98.613 85.4723 98.4314C84.4549 97.2276 83.2277 96.2182 81.8501 95.4522L80.9899 94.927C77.6852 93.0171 74.5737 90.7911 71.699 88.2803C70.1675 86.9421 68.7527 85.4759 67.4701 83.8975L67.0174 83.336M70.2049 79.1796C68.6587 79.1885 67.1196 79.3893 65.6228 79.7773C66.8815 80.9635 68.0678 82.2403 69.2903 83.4447C69.4235 82.6332 69.5988 81.8292 69.8155 81.036" fill="#060606"/>
<path fill-rule="evenodd" clip-rule="evenodd" d="M85.7172 3.8295C96.5837 3.8295 107.822 12.2601 111.806 17.63C115.147 22.1577 116.949 42.5867 116.949 56.3962C116.949 59.2849 118.543 64.7272 118.081 67.4891C116.379 77.613 108.953 86.107 94.2565 86.107C79.5595 86.107 69.0372 80.2844 58.1163 64.6366C52.8189 64.6366 50.2472 60.5707 50.2109 54.1595C50.2109 49.8854 51.9164 46.9695 55.3273 45.412C54.1199 28.5085 55.0496 17.8714 58.1163 13.5007C62.7527 6.92644 74.8507 3.8295 85.7172 3.8295Z" fill="white"/>
<path fill-rule="evenodd" clip-rule="evenodd" d="M81.1892 0.270714C87.9865 -0.316332 94.8327 0.052485 101.528 1.36641C101.745 1.40161 101.947 1.50039 102.108 1.65028C102.269 1.80016 102.382 1.99444 102.433 2.20857C105.621 2.35346 108.772 2.5889 111.987 2.76095C112.246 2.767 112.499 2.83993 112.721 2.97267C112.944 3.1054 113.129 3.29343 113.257 3.51851C113.386 3.74359 113.454 3.99807 113.455 4.25723C113.456 4.5164 113.39 4.77145 113.263 4.99763C113.161 5.19685 113.052 5.39607 112.937 5.59529H113.082C113.544 5.40053 114.039 5.30019 114.54 5.30019C115.041 5.30019 115.537 5.40053 115.998 5.59529C116.553 5.91167 116.989 6.40026 117.24 6.98695C117.492 7.57363 117.546 8.22637 117.393 8.84618C117.317 9.1566 117.214 9.45965 117.085 9.75172C117.344 9.72936 117.604 9.72936 117.864 9.75172C118.528 9.82648 119.143 10.1357 119.6 10.6237C120.056 11.1117 120.324 11.7465 120.354 12.414C120.462 14.5511 119.086 16.7153 117.465 18.2457C117.707 18.7526 117.786 19.322 117.692 19.8757C117.576 20.3938 117.332 20.8742 116.98 21.2717C116.628 21.6693 116.181 21.971 115.681 22.1486C116.104 23.4473 116.267 24.8166 116.161 26.1783C116.127 26.3988 116.026 26.6038 115.873 26.7656C115.719 26.9274 115.519 27.0384 115.301 27.0838C116.783 31.4892 117.776 36.0443 118.262 40.6669C118.666 43.9177 118.881 47.1892 118.905 50.4649C118.905 51.9409 118.905 53.417 118.823 54.902V55.4544C118.804 57.0786 118.68 58.6999 118.452 60.3081C119.364 62.0436 119.889 63.9558 119.992 65.9134C120.18 68.2475 119.891 70.5955 119.14 72.8137C116.424 81.1175 108.093 86.3968 99.7528 87.7279C92.0285 88.9866 83.0998 87.2933 78.5903 80.2753C78.5178 80.1667 78.6717 80.0761 78.7532 80.1485C81.986 82.7746 85.7259 83.9428 89.7918 84.5133C96.8279 85.5003 104.733 83.8251 110.375 79.406C113.093 77.2301 115.032 74.2302 115.899 70.8577C116.34 69.1534 116.481 67.3853 116.315 65.6327C116.134 63.8216 115.355 62.3365 114.857 60.6613C114.78 60.4075 114.771 60.1376 114.834 59.8796C114.896 59.6216 115.026 59.385 115.21 59.1943C115.31 57.8269 115.536 56.4777 115.627 55.1013C115.727 53.5528 115.781 52.0043 115.808 50.4649C115.808 47.2502 115.708 44.0446 115.446 40.848C114.948 34.9982 113.635 29.2933 112.865 23.4888C112.723 23.6348 112.535 23.7285 112.333 23.7548C112.131 23.7811 111.926 23.7384 111.751 23.6337H111.706L111.47 23.4979H111.425C109.811 23.6395 108.185 23.4547 106.644 22.9545C105.045 22.4663 103.548 21.6932 102.225 20.6726C101.981 21.9529 101.863 23.254 101.872 24.5573C101.869 24.7387 101.82 24.9164 101.728 25.073C101.637 25.2297 101.506 25.3599 101.349 25.4511C101.193 25.5423 101.015 25.5913 100.833 25.5934C100.652 25.5954 100.473 25.5505 100.314 25.4629C97.2849 23.921 94.3812 22.1437 91.63 20.1474C91.3041 21.7954 90.9871 23.4435 90.6611 25.0916C90.6192 25.2361 90.5451 25.3693 90.4443 25.4811C90.3436 25.5929 90.2188 25.6804 90.0793 25.7371C89.9399 25.7937 89.7894 25.818 89.6393 25.8082C89.4891 25.7983 89.3431 25.7546 89.2122 25.6802C87.1654 24.4888 85.3669 22.9147 83.9148 21.0438L83.0093 22.701L82.5656 23.525C82.3872 23.969 82.1212 24.3726 81.7837 24.7117C81.4461 25.0509 81.0437 25.3186 80.6006 25.4991C80.1409 25.6125 79.6551 25.5415 79.2472 25.3011C78.8393 25.0608 78.5417 24.6703 78.4182 24.2132C78.3095 23.9325 78.219 23.6427 78.1284 23.3077C77.2819 25.2679 76.3078 27.1706 75.2126 29.0036C73.5178 31.6817 71.6547 34.2496 69.6344 36.6916C69.0368 37.4522 68.0135 36.6916 67.932 35.9853C67.8867 35.5506 67.8415 35.0797 67.8143 34.6813C66.6643 36.9904 65.4689 39.2815 64.1921 41.5L64.3732 42.2335C64.9075 44.3887 65.3603 46.5711 65.8402 48.7353C65.9357 49.1121 65.8815 49.5112 65.689 49.8489C65.4965 50.1865 65.1807 50.4365 64.8079 50.5464C63.8299 50.6913 62.9063 51.1893 61.9102 50.8452C60.9141 50.5011 60.5971 49.5322 60.0991 48.6357C60.0002 48.4593 59.885 48.2926 59.755 48.1376V48.1829C59.6735 48.2825 59.4833 48.1829 59.5286 48.0471L59.592 47.9113C59.1483 47.4404 58.614 47.051 58.125 46.6254C57.017 46.4337 55.8767 46.6052 54.8741 47.1144C54.0071 47.6967 53.3027 48.4903 52.8274 49.4203C52.3521 50.3503 52.1216 51.3861 52.1575 52.4299C52.1689 54.9234 52.8474 57.3684 54.1225 59.5113C54.6407 60.434 55.4402 61.167 56.4045 61.6031C57.3915 62.0015 58.4601 61.8747 59.4562 62.246C59.6197 62.2949 59.7702 62.3799 59.8966 62.4947C60.023 62.6095 60.122 62.7512 60.1863 62.9094C60.2506 63.0676 60.2786 63.2381 60.2682 63.4086C60.2578 63.579 60.2093 63.7449 60.1263 63.8941L60.0447 64.0299L60.3436 64.4193C60.5428 64.7 60.7601 64.9898 60.9594 65.3248C61.4665 65.9044 62.0007 66.4749 62.5169 67.0454C63.4768 68.1139 64.4095 69.2005 65.3512 70.2781C66.293 71.3557 67.1623 72.2522 68.1494 73.194C69.1364 74.1357 70.214 74.824 71.0561 75.7748C71.8983 76.7256 72.0975 78.3194 70.7483 78.8536C69.2541 79.4513 67.9411 78.0567 66.9359 77.1331V77.0878C65.0765 75.3953 63.4558 73.4578 62.1184 71.3286C61.456 71.7864 60.6734 72.0392 59.8682 72.0553C59.0631 72.0714 58.271 71.8501 57.5907 71.4191C56.8796 70.8996 56.3631 70.1567 56.1238 69.3092C55.889 69.3626 55.6491 69.39 55.4084 69.3907L55.0462 69.5899C54.8268 69.7262 54.5808 69.814 54.3247 69.8474C54.0686 69.8808 53.8083 69.859 53.5613 69.7835C53.3143 69.7081 53.0863 69.5806 52.8926 69.4098C52.6989 69.239 52.544 69.0287 52.4382 68.7931C52.177 67.7771 52.3096 66.6999 52.8095 65.7776L52.891 65.5784C53.0992 65.0441 53.3256 64.4646 53.6063 63.9122C52.8137 63.3096 52.128 62.5779 51.5779 61.7479C49.6123 58.685 48.7469 55.0446 49.1239 51.4248C49.3655 49.319 50.3476 47.3677 51.8949 45.9191L51.8405 45.7651C51.3887 44.663 51.0224 43.5277 50.7448 42.3693C50.4656 40.982 50.272 39.5788 50.1653 38.1676C49.889 35.1976 49.9436 32.206 50.3283 29.2481C50.9589 23.671 52.9116 18.3251 56.0242 13.6546C55.5198 13.1699 55.1421 12.5689 54.9242 11.9042C54.7063 11.2395 54.6549 10.5315 54.7745 9.84228C54.932 9.15603 55.3386 8.55264 55.9155 8.14892C56.2415 7.9316 56.6309 7.90443 56.9478 7.72332L57.0474 7.66899C57.1923 7.58749 57.0474 7.59654 56.9931 7.20715C56.658 5.67679 56.9387 4.18265 58.6321 3.67555C60.3255 3.16844 61.7291 4.20982 62.6799 5.4323C65.143 3.67555 68.3938 2.71568 71.2554 1.98219C74.5153 1.1459 77.8373 0.573559 81.1892 0.270714ZM54.53 51.8866C54.539 51.6035 54.6104 51.3259 54.7393 51.0737C54.8682 50.8215 55.0513 50.6009 55.2755 50.4278C55.4996 50.2547 55.7593 50.1333 56.0359 50.0724C56.3125 50.0115 56.5992 50.0126 56.8754 50.0755C57.6399 50.262 58.3462 50.6354 58.9309 51.1622L59.2298 51.4066C60.0366 51.9485 60.7289 52.6439 61.2672 53.4532C61.9192 54.6757 60.5337 56.3328 59.2479 55.4725C58.4135 54.8041 57.7209 53.976 57.2104 53.0366L57.147 52.9461C56.9139 52.5332 56.6277 52.1527 56.2958 51.8142L56.2143 51.7417C56.0996 51.636 55.9638 51.5557 55.8159 51.5063C55.6326 51.4612 55.4398 51.4744 55.2645 51.5443C55.0892 51.6141 54.94 51.7369 54.8379 51.8956C54.8367 51.9401 54.8179 51.9822 54.7856 52.0128C54.7534 52.0433 54.7103 52.0598 54.6658 52.0586C54.6214 52.0574 54.5793 52.0386 54.5487 52.0064C54.5181 51.9741 54.5016 51.931 54.5028 51.8866H54.53Z" fill="#060606"/>
<path fill-rule="evenodd" clip-rule="evenodd" d="M104.063 69.2368C102.734 69.7732 101.263 69.8434 99.8889 69.436C98.5773 68.9944 97.4621 68.1068 96.7376 66.9276C96.4084 66.415 96.1922 65.8382 96.1032 65.2355C96.0142 64.6329 96.0545 64.0181 96.2214 63.4323C96.2349 63.4054 96.254 63.3818 96.2775 63.3631C96.3009 63.3443 96.3281 63.3308 96.3573 63.3236C96.6152 63.5682 96.8405 63.8452 97.0274 64.1476C97.3293 64.6241 97.6881 65.062 98.0959 65.4516C98.7492 66.0533 99.5535 66.4664 100.423 66.6469C101.249 66.7956 102.101 66.6616 102.841 66.2666C103.269 66.0147 103.665 65.7105 104.018 65.3611C104.392 64.976 104.838 64.6683 105.331 64.4555C105.542 64.3859 105.766 64.3719 105.984 64.4147C106.201 64.4576 106.404 64.5558 106.572 64.7C106.763 64.8383 106.92 65.0189 107.03 65.2279C107.14 65.4368 107.2 65.6683 107.206 65.9044C107.165 66.5858 106.879 67.2294 106.4 67.7155C105.742 68.3873 104.944 68.9067 104.063 69.2368ZM102.524 51.1259C103.964 52.0315 106.146 54.0508 104.616 56.2332C102.805 58.1529 100.151 55.9525 98.8566 54.9564C97.6522 54.1867 96.2939 56.1698 97.4167 57.0663C106.789 64.0118 110.601 51.3523 103.248 50.0936C102.443 50.0121 102.144 50.9177 102.524 51.1441V51.1259ZM87.329 38.9555C89.294 38.8558 91.0327 39.7433 92.9072 40.1508C94.6164 40.4648 96.3768 40.3529 98.0325 39.8248C100.749 39.0551 101.908 43.2477 99.2007 44.0627C97.2342 44.6229 95.167 44.7343 93.1517 44.3887C91.3406 44.117 89.8555 43.2477 88.1531 42.7406C86.5909 42.4053 84.9774 42.3869 83.408 42.6863L82.8104 42.7678C81.9048 42.8946 80.9993 43.0123 80.0937 43.1843C79.3348 43.4007 78.5595 43.5552 77.7755 43.6462C77.7534 43.646 77.7317 43.64 77.7126 43.6288C77.6934 43.6176 77.6776 43.6015 77.6666 43.5823C77.6556 43.5631 77.6499 43.5413 77.6499 43.5191C77.65 43.497 77.6558 43.4752 77.6669 43.456C78.7825 42.1938 80.1737 41.2054 81.7328 40.5673L81.8233 40.5221C83.5392 39.6497 85.41 39.1235 87.329 38.9736V38.9555ZM86.6227 48.201V48.1558C86.6227 46.9333 87.3381 44.1442 89.0948 44.1442C90.1905 44.1442 90.8606 46.0459 90.9693 48.0018V48.0833C91.0146 49.2967 90.6795 51.95 89.0858 51.95C87.492 51.95 86.6227 49.4235 86.6227 48.201ZM112.476 48.201V48.1558C112.476 46.9333 111.761 44.1442 110.004 44.1442C108.935 44.1442 108.274 45.9553 108.129 47.8569V48.0018C108.066 49.17 108.374 51.95 110.013 51.95C111.652 51.95 112.467 49.4326 112.476 48.201ZM112.476 37.4975H112.594C113.63 37.4897 114.642 37.8071 115.489 38.4049C116.335 39.0027 116.972 39.8508 117.312 40.8299C117.316 40.8525 117.313 40.8758 117.303 40.8966C117.293 40.9173 117.277 40.9345 117.257 40.9455C117.237 40.9566 117.214 40.961 117.191 40.9581C117.168 40.9553 117.147 40.9452 117.13 40.9295C115.437 39.3539 113.173 40.8662 111.48 41.654L110.864 41.9437C108.682 42.958 106.201 44.1442 103.783 43.3926C103.242 43.2163 102.79 42.8401 102.518 42.341C102.246 41.8419 102.175 41.2576 102.319 40.7079C102.464 40.1582 102.813 39.6846 103.296 39.384C103.778 39.0835 104.357 38.9788 104.915 39.0913H104.969C105.958 39.3153 106.995 39.1905 107.903 38.7381L108.673 38.4574C109.866 37.8919 111.157 37.56 112.476 37.4794V37.4975Z" fill="#060606"/>
<path fill-rule="evenodd" clip-rule="evenodd" d="M162.008 15.3661H284.981C301.56 15.3661 315 28.8059 315 45.3848C315 61.9637 301.56 75.4035 284.981 75.4035H193.973L177.819 98.4224L182.343 75.4035H162.008C145.43 75.4035 131.99 61.9637 131.99 45.3848C131.99 28.8059 145.43 15.3661 162.008 15.3661Z" fill="white"/>
<rect x="145.483" y="138.755" width="24.4496" height="21.733" fill="white"/>
<path d="M127.106 154.433L128.782 151.854L126.85 149.549L127.971 149.481L129.288 151.084L130.389 149.334L131.509 149.266L129.871 151.788L131.851 154.144L130.726 154.213L129.378 152.557L128.231 154.364L127.106 154.433Z" fill="black"/>
<path d="M134.04 148.976C134.721 148.935 135.239 149.077 135.595 149.403C135.95 149.727 136.149 150.244 136.193 150.955L136.37 153.87L135.421 153.927L135.377 153.213C135.077 153.8 134.548 154.117 133.788 154.163C133.535 154.178 133.304 154.157 133.095 154.101C132.889 154.047 132.71 153.961 132.558 153.843C132.409 153.725 132.289 153.579 132.2 153.406C132.111 153.233 132.06 153.037 132.046 152.817C132.032 152.573 132.062 152.356 132.138 152.167C132.215 151.975 132.331 151.809 132.489 151.67C132.65 151.527 132.848 151.409 133.085 151.316C133.324 151.22 133.596 151.143 133.901 151.085L135.233 150.836C135.204 150.463 135.094 150.196 134.903 150.035C134.714 149.871 134.441 149.8 134.082 149.822C133.763 149.841 133.512 149.919 133.33 150.054C133.151 150.186 133.029 150.383 132.967 150.647L132.081 150.47C132.18 150.016 132.396 149.663 132.728 149.41C133.064 149.154 133.501 149.009 134.04 148.976ZM134.061 151.778C133.666 151.851 133.382 151.96 133.21 152.107C133.037 152.25 132.958 152.444 132.973 152.688C133.002 153.167 133.33 153.388 133.957 153.35C134.125 153.339 134.281 153.307 134.423 153.253C134.568 153.199 134.695 153.128 134.804 153.04C134.914 152.948 135.004 152.843 135.075 152.724C135.15 152.601 135.202 152.469 135.233 152.329C135.271 152.208 135.289 152.082 135.287 151.949C135.288 151.813 135.285 151.69 135.278 151.582L135.276 151.55L134.061 151.778Z" fill="black"/>
<path d="M141.604 147.02L141.999 153.527L141.05 153.585L141.007 152.876C140.87 153.15 140.679 153.37 140.435 153.536C140.191 153.699 139.878 153.793 139.495 153.816C139.167 153.836 138.861 153.791 138.58 153.681C138.301 153.571 138.056 153.409 137.847 153.195C137.64 152.977 137.473 152.715 137.345 152.409C137.221 152.099 137.147 151.756 137.124 151.379C137.101 150.996 137.134 150.643 137.223 150.321C137.312 149.998 137.446 149.717 137.626 149.48C137.807 149.239 138.03 149.048 138.294 148.908C138.557 148.765 138.853 148.684 139.182 148.664C139.564 148.64 139.887 148.696 140.149 148.832C140.411 148.964 140.627 149.158 140.797 149.414L140.655 147.077L141.604 147.02ZM139.417 149.543C139.182 149.557 138.979 149.612 138.81 149.707C138.643 149.799 138.505 149.924 138.397 150.081C138.291 150.236 138.216 150.419 138.172 150.63C138.127 150.839 138.112 151.068 138.127 151.318C138.143 151.574 138.186 151.804 138.256 152.009C138.328 152.21 138.426 152.381 138.55 152.521C138.676 152.659 138.828 152.763 139.004 152.834C139.184 152.902 139.39 152.929 139.622 152.914C139.86 152.9 140.062 152.847 140.229 152.755C140.399 152.663 140.535 152.54 140.637 152.386C140.743 152.228 140.816 152.045 140.858 151.837C140.903 151.625 140.917 151.396 140.902 151.149C140.887 150.89 140.842 150.658 140.769 150.454C140.699 150.25 140.601 150.079 140.475 149.941C140.352 149.801 140.202 149.696 140.025 149.629C139.848 149.558 139.646 149.529 139.417 149.543Z" fill="black"/>
<path d="M145.346 152.576C145.657 152.557 145.909 152.476 146.103 152.334C146.3 152.189 146.451 151.985 146.556 151.722L147.504 151.95C147.338 152.402 147.072 152.758 146.707 153.019C146.345 153.28 145.909 153.426 145.4 153.457C145.038 153.479 144.706 153.437 144.404 153.331C144.104 153.223 143.841 153.062 143.617 152.849C143.392 152.635 143.213 152.374 143.079 152.065C142.945 151.755 142.867 151.409 142.844 151.027C142.82 150.638 142.856 150.282 142.951 149.959C143.046 149.635 143.193 149.354 143.39 149.116C143.587 148.877 143.828 148.688 144.113 148.55C144.401 148.408 144.722 148.327 145.078 148.305C145.457 148.282 145.797 148.328 146.098 148.443C146.398 148.558 146.652 148.733 146.86 148.968C147.071 149.2 147.23 149.49 147.339 149.837C147.451 150.181 147.508 150.572 147.51 151.011L143.877 151.231C143.947 151.684 144.11 152.028 144.366 152.263C144.622 152.496 144.949 152.6 145.346 152.576ZM146.494 150.333C146.436 149.931 146.289 149.629 146.053 149.425C145.817 149.222 145.509 149.132 145.129 149.155C144.753 149.178 144.455 149.305 144.236 149.536C144.021 149.767 143.893 150.086 143.855 150.493L146.494 150.333Z" fill="black"/>
<path d="M152.843 148.759C152.727 148.744 152.58 148.743 152.402 148.754C152.21 148.765 152.038 148.806 151.888 148.876C151.738 148.945 151.613 149.044 151.512 149.171C151.41 149.295 151.336 149.449 151.29 149.633C151.244 149.817 151.228 150.03 151.243 150.271L151.406 152.956L150.461 153.013L150.165 148.132L151.109 148.075L151.15 148.748C151.204 148.633 151.27 148.525 151.348 148.423C151.429 148.318 151.527 148.226 151.64 148.147C151.756 148.064 151.891 147.997 152.045 147.945C152.202 147.893 152.38 147.861 152.579 147.849C152.612 147.847 152.647 147.847 152.683 147.847C152.719 147.845 152.754 147.845 152.787 147.846L152.843 148.759Z" fill="black"/>
<path d="M155.992 152.813C155.628 152.835 155.294 152.792 154.991 152.683C154.691 152.574 154.43 152.413 154.208 152.2C153.987 151.984 153.809 151.721 153.675 151.411C153.544 151.102 153.468 150.757 153.444 150.378C153.421 149.998 153.456 149.647 153.548 149.324C153.643 149 153.788 148.719 153.982 148.481C154.179 148.242 154.42 148.052 154.705 147.91C154.993 147.766 155.317 147.683 155.679 147.661C156.043 147.639 156.377 147.682 156.68 147.79C156.983 147.896 157.245 148.057 157.467 148.273C157.689 148.487 157.865 148.748 157.996 149.058C158.129 149.364 158.207 149.707 158.23 150.087C158.254 150.469 158.218 150.822 158.122 151.146C158.03 151.469 157.887 151.751 157.693 151.993C157.499 152.231 157.258 152.423 156.971 152.567C156.683 152.709 156.357 152.791 155.992 152.813ZM155.938 151.923C156.164 151.909 156.36 151.858 156.527 151.769C156.697 151.68 156.837 151.559 156.945 151.408C157.054 151.253 157.132 151.07 157.18 150.858C157.227 150.644 157.243 150.407 157.227 150.148C157.211 149.886 157.167 149.652 157.094 149.448C157.021 149.244 156.921 149.073 156.795 148.936C156.669 148.798 156.516 148.697 156.337 148.632C156.16 148.564 155.959 148.537 155.733 148.551C155.504 148.565 155.305 148.616 155.135 148.705C154.968 148.794 154.83 148.914 154.721 149.066C154.615 149.218 154.539 149.399 154.491 149.611C154.446 149.822 154.432 150.058 154.448 150.317C154.464 150.579 154.508 150.813 154.581 151.021C154.654 151.225 154.754 151.396 154.88 151.533C155.006 151.671 155.158 151.773 155.334 151.841C155.514 151.909 155.715 151.936 155.938 151.923Z" fill="black"/>
<path d="M161.468 152.48C161.101 152.502 160.767 152.459 160.467 152.35C160.167 152.242 159.908 152.08 159.689 151.867C159.474 151.65 159.302 151.387 159.174 151.077C159.049 150.767 158.976 150.424 158.953 150.047C158.929 149.665 158.962 149.312 159.052 148.989C159.144 148.666 159.286 148.385 159.477 148.147C159.668 147.908 159.906 147.718 160.191 147.577C160.478 147.433 160.804 147.349 161.169 147.327C161.437 147.311 161.688 147.33 161.921 147.386C162.157 147.441 162.369 147.528 162.558 147.646C162.75 147.762 162.914 147.907 163.052 148.083C163.193 148.259 163.3 148.46 163.374 148.685L162.451 149.014C162.341 148.745 162.174 148.542 161.951 148.404C161.731 148.264 161.484 148.201 161.209 148.218C160.983 148.232 160.788 148.285 160.625 148.376C160.461 148.468 160.326 148.591 160.221 148.745C160.118 148.9 160.045 149.083 160 149.294C159.955 149.503 159.941 149.733 159.956 149.986C159.971 150.239 160.014 150.468 160.084 150.673C160.154 150.874 160.249 151.045 160.369 151.186C160.493 151.327 160.641 151.432 160.815 151.504C160.992 151.574 161.191 151.603 161.414 151.59C161.722 151.571 161.964 151.487 162.143 151.337C162.324 151.184 162.455 150.973 162.535 150.705L163.507 150.873C163.374 151.365 163.133 151.748 162.783 152.023C162.434 152.296 161.996 152.448 161.468 152.48Z" fill="black"/>
<path d="M164.109 145.651L165.054 145.594L165.296 149.571L167.069 147.104L168.271 147.031L166.395 149.595L168.776 151.9L167.492 151.978L165.307 149.752L165.45 152.102L164.505 152.159L164.109 145.651Z" fill="black"/>
<path d="M171.027 151.894C170.431 151.931 169.941 151.833 169.558 151.603C169.175 151.369 168.918 151.009 168.789 150.524L169.752 150.312C169.926 150.851 170.341 151.101 170.995 151.062C171.296 151.043 171.532 150.971 171.703 150.846C171.873 150.718 171.952 150.547 171.939 150.333C171.936 150.273 171.925 150.219 171.907 150.172C171.892 150.121 171.865 150.076 171.826 150.036C171.79 149.996 171.741 149.959 171.679 149.927C171.619 149.894 171.543 149.863 171.451 149.832C171.364 149.807 171.249 149.778 171.105 149.744C170.964 149.71 170.798 149.673 170.608 149.634C170.339 149.58 170.095 149.521 169.876 149.456C169.661 149.387 169.476 149.303 169.321 149.204C169.17 149.104 169.051 148.983 168.963 148.84C168.876 148.697 168.826 148.523 168.814 148.318C168.801 148.101 168.834 147.901 168.913 147.718C168.996 147.535 169.116 147.375 169.274 147.238C169.435 147.098 169.631 146.986 169.862 146.903C170.093 146.819 170.35 146.769 170.633 146.752C170.91 146.735 171.167 146.754 171.403 146.809C171.642 146.861 171.853 146.944 172.035 147.057C172.22 147.169 172.374 147.311 172.496 147.482C172.618 147.653 172.701 147.846 172.745 148.061L171.788 148.296C171.763 148.177 171.717 148.071 171.651 147.978C171.588 147.885 171.507 147.808 171.41 147.748C171.312 147.684 171.199 147.638 171.071 147.61C170.942 147.581 170.802 147.571 170.651 147.581C170.519 147.589 170.396 147.611 170.284 147.648C170.171 147.682 170.074 147.729 169.993 147.789C169.915 147.845 169.853 147.91 169.81 147.986C169.769 148.058 169.751 148.137 169.756 148.225C169.761 148.309 169.788 148.38 169.837 148.438C169.886 148.495 169.949 148.544 170.028 148.585C170.109 148.625 170.198 148.659 170.297 148.686C170.398 148.713 170.504 148.74 170.615 148.767C170.743 148.795 170.886 148.829 171.043 148.868C171.202 148.903 171.371 148.942 171.549 148.982C171.782 149.038 171.981 149.103 172.146 149.177C172.313 149.252 172.452 149.339 172.561 149.438C172.669 149.537 172.751 149.653 172.804 149.786C172.86 149.915 172.894 150.065 172.904 150.233C172.918 150.471 172.886 150.69 172.808 150.888C172.729 151.083 172.607 151.252 172.444 151.395C172.283 151.538 172.083 151.652 171.843 151.736C171.606 151.823 171.334 151.876 171.027 151.894Z" fill="black"/>
<path d="M174.343 149.928L174.046 145.047L174.932 144.993L175.228 149.874L174.343 149.928ZM174.441 151.555L174.386 150.638L175.272 150.584L175.327 151.501L174.441 151.555Z" fill="black"/>
<path d="M154.538 56.7572L180.963 31.7952L207.387 55.946L225.118 36.0388L231.453 55.527L236.472 35.1919L252.528 55.099C252.528 55.099 268.922 28.8354 269.929 30.137C270.935 31.4386 287.653 57.2565 287.653 57.2565" stroke="black" stroke-width="2" stroke-miterlimit="10"/>
</svg>
