<svg width="194" height="195" viewBox="0 0 194 195" fill="none" xmlns="http://www.w3.org/2000/svg">
<path fill-rule="evenodd" clip-rule="evenodd" d="M193 102.148C193 122.616 183.598 141.207 168.288 154.964V193.658H147.707V168.782C133.695 175.558 118.331 179.042 102.779 178.97C93.454 178.985 84.1682 177.754 75.1663 175.31V190.943H44.3029V160.653C30.6331 150.785 20.563 137.547 15.7178 122.433H1V78.203H17.0089C22.5897 64.2552 32.0883 52.2373 44.3485 43.6124L30.2686 3.95831L63.4102 32.9973C75.9217 27.897 89.3067 25.3063 102.81 25.3716C152.613 25.3105 193 59.7791 193 102.148Z" fill="white" stroke="#060606" stroke-width="2" stroke-miterlimit="10"/>
<path d="M37.8173 83.8309C40.8036 83.8309 43.2245 81.4 43.2245 78.4013C43.2245 75.4026 40.8036 72.9717 37.8173 72.9717C34.831 72.9717 32.4102 75.4026 32.4102 78.4013C32.4102 81.4 34.831 83.8309 37.8173 83.8309Z" fill="#060606"/>
<path d="M78.4165 39.7996C78.4165 39.7996 123.36 23.4957 158.537 56.5763" stroke="#060606" stroke-width="2" stroke-miterlimit="10"/>
</svg>
