<svg width="198" height="218" viewBox="0 0 198 218" fill="none" xmlns="http://www.w3.org/2000/svg">
<path fill-rule="evenodd" clip-rule="evenodd" d="M51.0314 14.5675C36.8469 22.6139 24.9255 34.1139 16.3741 47.9998C7.82268 61.8857 2.9185 77.7072 2.11696 93.9953C1.31541 110.283 4.6425 126.51 11.7893 141.168C18.936 155.827 29.6707 168.442 42.9967 177.842L45.5856 210.452L56.3849 185.729C71.3636 193.018 87.9707 196.315 104.598 195.302C121.225 194.289 137.309 188.999 151.292 179.946C165.275 170.892 176.683 158.381 184.412 143.625C192.141 128.868 195.928 112.366 195.407 95.7162C194.887 79.0663 190.075 62.833 181.439 48.5883C172.804 34.3436 160.636 22.5702 146.114 14.4082C131.593 6.2462 115.21 1.97222 98.552 2.00014C81.894 2.02805 65.5254 6.35691 51.0314 14.5675Z" fill="white" stroke="#060606" stroke-width="3.37" stroke-miterlimit="10"/>
<path d="M100.378 151.621V37.3301H107.7V151.621H100.378ZM125.022 71.6174C124.486 67.0934 122.314 63.5813 118.504 61.0812C114.694 58.5811 110.021 57.331 104.485 57.331C100.438 57.331 96.8957 57.9858 93.8598 59.2954C90.8537 60.605 88.5024 62.4057 86.8059 64.6974C85.1392 66.9892 84.3058 69.5935 84.3058 72.5103C84.3058 74.9509 84.8862 77.0492 86.047 78.8052C87.2375 80.5315 88.7554 81.975 90.6008 83.1358C92.4461 84.2668 94.3807 85.2043 96.4046 85.9484C98.4285 86.6627 100.289 87.2431 101.985 87.6896L111.271 90.1897C113.652 90.8147 116.301 91.6778 119.218 92.7791C122.165 93.8803 124.977 95.3834 127.656 97.2882C130.364 99.1633 132.597 101.574 134.353 104.521C136.109 107.467 136.987 111.083 136.987 115.369C136.987 120.31 135.692 124.775 133.103 128.763C130.543 132.751 126.793 135.921 121.852 138.272C116.941 140.624 110.974 141.799 103.95 141.799C97.4017 141.799 91.7318 140.743 86.9399 138.629C82.1777 136.516 78.4276 133.57 75.6894 129.79C72.9809 126.01 71.4481 121.62 71.0909 116.619H82.52C82.8177 120.072 83.9784 122.929 86.0023 125.191C88.056 127.424 90.6454 129.09 93.7705 130.192C96.9254 131.263 100.318 131.799 103.95 131.799C108.176 131.799 111.971 131.114 115.334 129.745C118.697 128.346 121.361 126.412 123.325 123.941C125.29 121.441 126.272 118.524 126.272 115.191C126.272 112.155 125.424 109.685 123.727 107.78C122.031 105.875 119.799 104.327 117.031 103.137C114.263 101.946 111.271 100.904 108.057 100.012L96.8064 96.7971C89.6632 94.7435 84.0082 91.8118 79.8413 88.0021C75.6745 84.1924 73.591 79.207 73.591 73.046C73.591 67.9268 74.975 63.4623 77.743 59.6526C80.5408 55.8131 84.2909 52.8368 88.9935 50.7236C93.7259 48.5806 99.0089 47.5092 104.842 47.5092C110.736 47.5092 115.974 48.5658 120.557 50.679C125.141 52.7624 128.772 55.6197 131.451 59.2508C134.159 62.8819 135.588 67.0041 135.737 71.6174H125.022Z" fill="#222221"/>
</svg>
