<svg width="36" height="36" viewBox="0 0 36 36" fill="none" xmlns="http://www.w3.org/2000/svg">
<circle cx="18" cy="18" r="17" stroke="white" stroke-width="2"/>
<path fill-rule="evenodd" clip-rule="evenodd" d="M24.3939 12.4763L19.1818 10.2426C18.4271 9.91915 17.5729 9.91914 16.8182 10.2426L11.6061 12.4763C11.2384 12.6339 11 12.9955 11 13.3955V18.6484C11 20.5861 11.9358 22.4045 13.5126 23.5308L16.8375 25.9058C17.5329 26.4025 18.4671 26.4025 19.1625 25.9058L22.4874 23.5308C24.0642 22.4045 25 20.5861 25 18.6484V13.3955C25 12.9955 24.7616 12.6339 24.3939 12.4763ZM21.7809 16.361C22.1259 15.9298 22.056 15.3005 21.6247 14.9555C21.1934 14.6104 20.5641 14.6804 20.2191 15.1116L16.9171 19.2392L15.7071 18.0292C15.3166 17.6387 14.6834 17.6387 14.2929 18.0292C13.9024 18.4197 13.9024 19.0529 14.2929 19.4434L15.8979 21.0484C16.53 21.6806 17.5714 21.6229 18.1298 20.9248L21.7809 16.361Z" fill="white"/>
</svg>
