<svg width="36" height="36" viewBox="0 0 36 36" fill="none" xmlns="http://www.w3.org/2000/svg">
<circle cx="18" cy="18" r="17" stroke="white" stroke-width="2"/>
<path d="M25.5 12L24.0333 13.1C23.6871 13.3596 23.2661 13.5 22.8333 13.5H19.475C18.8775 13.5 18.3312 13.8376 18.064 14.3721V14.3721C17.7342 15.0316 17.9053 15.8316 18.476 16.2986L20.476 17.9349C22.0499 19.2227 22.8644 21.22 22.6399 23.2412L22.5936 23.6577C22.5314 24.2177 22.4102 24.7695 22.232 25.304L22 26" stroke="white" stroke-width="2"/>
<path d="M8.5 16.5L11.7381 15.9603C13.0917 15.7347 14.2653 16.9083 14.0397 18.2619L13.9052 19.069C13.6643 20.514 14.3941 21.9471 15.7044 22.6022V22.6022C16.7535 23.1268 17.2976 24.3097 17.0131 25.4476L16.5 27.5" stroke="white" stroke-width="2"/>
<circle cx="18" cy="18" r="9" stroke="white" stroke-width="2"/>
</svg>
